<svg xmlns="http://www.w3.org/2000/svg" viewBox="0 0 381.47 202.73"><defs><style>.cls-1{fill:#333;}</style></defs><title>Asset 2</title><g id="Layer_2" data-name="Layer 2"><g id="Layer_1-2" data-name="Layer 1"><path class="cls-1" d="M52.61,82.43a.06.06,0,0,1,0,0h0S52.62,82.44,52.61,82.43Zm3,.52a3.43,3.43,0,0,0-.21-.74c0-.07-.06-.16-.09-.24a2.11,2.11,0,0,0-.2-.43,1.63,1.63,0,0,0-.17-.22.24.24,0,0,1,0-.07,2.45,2.45,0,0,0-.32-.47l-.16-.14-.14-.13a2.67,2.67,0,0,0-.48-.32.3.3,0,0,1-.11-.06,1.79,1.79,0,0,0-.16-.31,1.38,1.38,0,0,0-1-.51h-.14a1.29,1.29,0,0,0-1.16,1.3,2.28,2.28,0,0,0,.23,1,.78.78,0,0,0,.15.22,1.36,1.36,0,0,0,.72.47h0a.25.25,0,0,0,.08.05.59.59,0,0,0,.22.12.08.08,0,0,0,0,0,1.17,1.17,0,0,0,.21.3.1.1,0,0,1,0,0s0,0,0,0a4,4,0,0,1,.17.52.22.22,0,0,0,0,.08c0,.23-.11.46-.16.69-.07.38-.07.79-.11,1.19,0,.19-.08.37-.12.56s-.07.45-.12.68a17,17,0,0,1-.4,1.78,15.37,15.37,0,0,0-.37,1.84c-.06.32-.14.63-.22.94s-.13.59-.22.88c-.16.57-.33,1.14-.51,1.69s-.28,1.07-.42,1.59-.29,1.18-.42,1.77-.27,1.07-.38,1.62c-.21,1-.49,2.07-.66,3.12a27.27,27.27,0,0,1-.77,3.36c-.34,1.2-.57,2.45-.81,3.68-.12.6-.24,1.19-.33,1.79s-.25,1.18-.36,1.76-.2,1-.28,1.47c0,.27-.09.54-.14.81s-.07.55-.09.82c-.1.6-.32,1.19-.44,1.79-.07.35-.12.72-.2,1.08a6.54,6.54,0,0,1-.18.88c-.09.25-.15.49-.23.75s-.14.53-.23.79-.11.5-.18.74a8.65,8.65,0,0,0-.16.86s0,0,0,0a3.71,3.71,0,0,1-.11.58c-.08.31-.12.6-.18.89a6.53,6.53,0,0,0-.15,1.08c0,.18,0,.36,0,.53-.08.45-.19.89-.26,1.33,0,.21-.07.41-.12.62-.09.41-.16.8-.25,1.2s-.1.57-.16.85-.12.67-.17,1A2.3,2.3,0,0,1,43,131c0,.21-.08.43-.11.63a0,0,0,0,1,0,0v0a5.17,5.17,0,0,1-.11.54c-.06.22-.1.45-.14.68v0c0,.2-.08.42-.13.62s-.1.59-.14.88-.09.48-.12.71-.06.59-.08.88-.07.34-.11.51-.09.56-.12.84a5.43,5.43,0,0,1-.13.58,6.6,6.6,0,0,0-.17.77c-.06.25-.14.51-.19.76s-.12.54-.19.82-.1.5-.17.74-.13.59-.2.88c-.13.6-.23,1.21-.37,1.81s-.23,1.16-.37,1.73-.3,1.19-.44,1.78c-.32,1.29-.61,2.58-.91,3.86-.16.68-.32,1.34-.47,2s-.29,1.08-.45,1.63c-.29,1.1-.56,2.21-.78,3.34s-.46,2.22-.72,3.32c-.3,1.27-.55,2.53-.86,3.8-.14.6-.29,1.2-.43,1.81a20.86,20.86,0,0,0-.39,2.21c0,.36-.09.71-.13,1.06-.11.76-.33,1.47-.49,2.21s-.32,1.59-.44,2.38c-.06.45-.15.88-.2,1.32,0,.28,0,.57-.08.85A13.89,13.89,0,0,1,33,178.6a10.81,10.81,0,0,0-.34,1.75c-.08.48-.22.92-.31,1.4s-.18,1.1-.26,1.65l0-.35c-.22,1.51-.52,3-.74,4.49,0,.1,0,.19,0,.29-.05.32-.1.64-.14.95s-.13.85-.19,1.27c0,0,0,.07,0,.09s0,.07,0,.09c-.14.81-.39,1.59-.56,2.39-.09.41-.2.81-.27,1.22-.09.57-.11,1.13-.15,1.71a1.19,1.19,0,0,0,.09.47h0v0a1.38,1.38,0,0,0,1.22.81,1.34,1.34,0,0,0,1.31-1.32c0-.38,0-.77.08-1.15a2.71,2.71,0,0,1,.09-.41c.09-.47.22-1,.33-1.41s.17-.72.27-1.08a10.49,10.49,0,0,0,.2-1.25c.08-.5.17-1,.22-1.5l.15-1c.23-1.48.53-2.94.75-4.42a11.78,11.78,0,0,1,.21-1.16c.13-.55.23-1.09.31-1.65l0,.34c.13-.75.3-1.49.47-2.23.08-.35.16-.69.21-1s.08-.81.13-1.21.11-.73.16-1.1c.14-.87.32-1.75.53-2.61.11-.45.23-.89.32-1.36s.12-1,.18-1.5c0-.19.06-.39.08-.58.09-.6.22-1.19.35-1.79s.32-1.21.46-1.84c.27-1.24.55-2.49.84-3.74.25-1.08.5-2.16.69-3.25.05-.27.13-.52.18-.78s.13-.64.22-1c.14-.53.27-1.07.41-1.61.33-1.22.64-2.45.92-3.7s.6-2.55.89-3.81c.14-.6.31-1.19.45-1.78s.24-1.16.37-1.74l.15-.84c.06-.33.16-.66.22-1s.12-.54.18-.8.12-.53.19-.8.12-.55.19-.83a7.84,7.84,0,0,0,.18-.81c0-.25.13-.48.19-.74a8.64,8.64,0,0,0,.15-.91l.15-.8c0-.38.09-.76.11-1.13s.09-.57.13-.84c0,0,0,0,0-.05h0c.06-.22.09-.44.14-.66s.08-.46.12-.69.1-.39.14-.58.08-.44.12-.66.1-.43.14-.65a8.27,8.27,0,0,0,.12-.85c.08-.5.2-1,.28-1.47.16-.77.32-1.52.43-2.29,0,.11,0,.23,0,.36.1-.49.2-1,.26-1.43,0-.29,0-.57.07-.85s.11-.69.19-1a8.86,8.86,0,0,0,.22-1.12c0-.25.11-.48.16-.73s.14-.5.21-.74.16-.54.23-.81.18-.52.24-.8c.15-.71.23-1.42.41-2.13.08-.33.17-.66.25-1a6.6,6.6,0,0,0,.18-1.26c.09-.52.2-1,.29-1.57s.21-1.14.34-1.71c.27-1.2.43-2.43.7-3.63.14-.6.26-1.2.41-1.8s.3-1.13.42-1.69c.07-.32.17-.63.25-.93s.11-.58.18-.86c.1-.5.19-1,.28-1.51.2-1.07.47-2.13.7-3.2s.54-2.27.83-3.39c.15-.58.36-1.14.51-1.71s.3-1.12.44-1.66.25-1.26.37-1.87.28-1.19.42-1.79.18-1,.31-1.56c0,0,0,0,0-.06a10.46,10.46,0,0,0,.19-1.59,4,4,0,0,0,.11-.5A3.5,3.5,0,0,0,55.64,83Z"/><path class="cls-1" d="M50.64,188.37h0v0S50.64,188.35,50.64,188.37Zm2.52-.18a1.19,1.19,0,0,0-.33-.51,1.28,1.28,0,0,0-.91-.37h0a1.39,1.39,0,0,0-.91.39,1.37,1.37,0,0,0-.32.62v0h0v0h0s0,0,0,0a1.12,1.12,0,0,0-.1.31c0,.13,0,.27-.08.4s-.1.26-.13.38,0,0,0,0a3.48,3.48,0,0,1-.1.44c0,.11-.05.25-.09.38s-.09.32-.13.47c-.06.31-.1.62-.17.92-.11.63-.24,1.23-.35,1.86a3.66,3.66,0,0,1-.13.44c0,.16-.05.32-.1.48a2.74,2.74,0,0,0-.09.39c0,.16-.11.31-.14.46-.11.4-.17.82-.29,1.22a8.58,8.58,0,0,1-.46.83c-.15.28-.29.57-.47.84a.8.8,0,0,1-.13.13,2,2,0,0,0-.39.47,1,1,0,0,1-.18.18.21.21,0,0,1-.07,0,.85.85,0,0,1-.24.05l-.07,0-.16,0h-.13a4.06,4.06,0,0,0-.69.16l-.29.1h0l-.32,0c-.2,0-.42,0-.64,0a4.31,4.31,0,0,0-.88,0,7.66,7.66,0,0,1-.83,0,4.46,4.46,0,0,0-.73,0c-.28,0-.57.05-.85.09s-.52,0-.77,0-.67.12-1,.19l-1,.13c-.25,0-.52.05-.78.1l-.33.08h-.2l-.46,0c-.21,0-.41,0-.63,0l-.61,0a3.23,3.23,0,0,0-.62,0h-.48c-.23,0-.46-.06-.69-.06a5.33,5.33,0,0,1-.57,0,1.36,1.36,0,0,1-.29-.06c-.18-.09-.36-.18-.52-.28s0,0,0,0a.58.58,0,0,0,0-.18,1.12,1.12,0,0,0,0-.21,2.34,2.34,0,0,0,0-.38,2.08,2.08,0,0,0,.05-.36,2.46,2.46,0,0,1,.07-.29,3.09,3.09,0,0,0,.14-.46,2.53,2.53,0,0,0,.06-.49c.07-.35.13-.71.17-1.08,0,.11,0,.23,0,.33,0-.19.08-.4.12-.59s.12-.6.17-.91a1.33,1.33,0,0,0-.16-1,1.27,1.27,0,0,0-.81-.59,1.32,1.32,0,0,0-1.58,1c-.1.57-.24,1.13-.31,1.69V196a.17.17,0,0,1,0,.07,3.39,3.39,0,0,1-.08.44c0,.19-.05.38-.06.56a.84.84,0,0,1-.07.24,4.58,4.58,0,0,0-.15.49c0,.16,0,.33-.05.5s0,.23,0,.35-.06.4-.09.59,0,.21,0,.31v0a2.8,2.8,0,0,0,.07.75,3,3,0,0,0,.26.75,2.69,2.69,0,0,0,1.19,1,3.64,3.64,0,0,0,1.3.51l.86.08h.53a4,4,0,0,0,.69.05H35a4.52,4.52,0,0,0,.82.05,3.71,3.71,0,0,1,.75,0,1.23,1.23,0,0,1,.27,0,2.83,2.83,0,0,0,.65,0c.27,0,.52-.11.78-.16l.95-.11c.42-.05.83-.13,1.24-.22s.7-.05,1-.06a7.56,7.56,0,0,1,1.16,0,7.18,7.18,0,0,0,.8,0c.28,0,.55,0,.81,0l.53,0a3.27,3.27,0,0,0,.54,0h.23a3.44,3.44,0,0,0,.56-.09c.23-.05.43-.16.66-.21l.1,0h0l.26,0a4,4,0,0,0,.52-.09,3.58,3.58,0,0,0,.63-.21,2.09,2.09,0,0,0,.48-.41,2.36,2.36,0,0,0,.34-.3l.3-.41.19-.16a4.33,4.33,0,0,0,.39-.51c.11-.17.22-.35.32-.53l.65-1.2a8.83,8.83,0,0,0,.6-2.06,8.19,8.19,0,0,0,.23-.85c.05-.31.15-.62.22-.92s.06-.41.11-.62.1-.46.14-.69.09-.44.13-.67.06-.44.12-.66.11-.4.16-.61.1-.41.14-.63.13-.37.17-.57.06-.33.11-.5a.34.34,0,0,0,0-.11,1.59,1.59,0,0,0,.06-.43A.8.8,0,0,0,53.16,188.19Z"/><path class="cls-1" d="M78.54,81.08a1.31,1.31,0,0,0-.47-.44,1.29,1.29,0,0,0-.64-.16,1.27,1.27,0,0,0-.7.21l-.07,0h-.44a2.7,2.7,0,0,0-.41.07,1.42,1.42,0,0,0-.36,0,2.11,2.11,0,0,0-.55.25,3.21,3.21,0,0,0-1.51,1.51A5.6,5.6,0,0,0,73,83.7c-.13.4-.28.8-.39,1.21s-.22.91-.36,1.35-.27.95-.37,1.42-.23,1.08-.32,1.61-.17,1.08-.27,1.6S71,92,70.89,92.48s-.23,1-.39,1.48c-.32,1.08-.6,2.18-.85,3.28-.13.58-.23,1.17-.36,1.74s-.26,1.14-.35,1.71-.18,1-.28,1.56-.2.86-.27,1.31c-.15,1-.51,1.91-.74,2.87-.13.54-.22,1.09-.36,1.61s-.32,1.27-.46,1.91-.32,1.12-.46,1.7-.23,1.29-.38,1.93c-.31,1.27-.61,2.56-.88,3.87-.23,1.14-.45,2.29-.74,3.42s-.64,2.36-.94,3.54-.44,2.33-.7,3.49c-.11.49-.2,1-.3,1.49s-.25,1.08-.38,1.62-.24,1.15-.37,1.71-.26,1.18-.41,1.76c-.29,1.19-.48,2.41-.7,3.62-.1.58-.23,1.15-.36,1.73s-.23,1.22-.34,1.85c-.23,1.1-.49,2.2-.69,3.32-.1.62-.22,1.24-.35,1.86s-.28,1.21-.41,1.81-.24,1.13-.38,1.69-.27,1-.38,1.48c-.53,2.2-.9,4.41-1.36,6.62-.24,1.15-.52,2.29-.75,3.44-.1.55-.18,1.08-.29,1.63s-.23,1.21-.32,1.82-.22,1.12-.35,1.69-.26,1.15-.37,1.72c-.22,1.06-.46,2.11-.75,3.13-.17.57-.29,1.14-.41,1.7s-.27,1.31-.39,2c-.19,1-.34,2.12-.52,3.18-.19,1.24-.47,2.47-.67,3.72-.15,1.09-.42,2.15-.53,3.23-.05.53-.17,1-.26,1.56a2.91,2.91,0,0,1-.18.64c-.1.33-.16.67-.24,1a1.33,1.33,0,0,0,0,.66,1.27,1.27,0,0,0,1,.91,1.33,1.33,0,0,0,1.57-1c0-.29.11-.58.19-.88,0-.13.09-.25.13-.38a2.58,2.58,0,0,1,.08-.26c0-.22.07-.45.11-.66s.09-.5.13-.76c.08-.52.14-1,.22-1.58s.2-1.09.3-1.62c.23-1.23.42-2.46.65-3.69.12-.57.2-1.16.29-1.73s.17-1,.25-1.51.22-1.28.36-1.91.25-1.16.41-1.73.29-1.08.43-1.61.22-1,.34-1.54.21-1.15.35-1.72.28-1.09.37-1.64.2-1.24.31-1.85.22-1.1.31-1.65c.2-1.16.5-2.31.74-3.46s.47-2.37.71-3.54c.12-.57.22-1.13.34-1.68s.2-.93.3-1.4c.25-1,.55-2.07.77-3.12.11-.6.26-1.22.4-1.82s.24-1.21.35-1.81c.22-1.13.48-2.25.69-3.38.12-.6.21-1.21.34-1.81s.28-1.19.39-1.8c.21-1.19.4-2.38.67-3.56.51-2.21,1-4.42,1.47-6.64.12-.62.26-1.24.39-1.86s.18-1.06.3-1.58c.28-1.19.64-2.35.93-3.53s.51-2.28.77-3.45.57-2.57.85-3.86c.14-.62.23-1.26.39-1.9s.3-1.14.44-1.71.3-1.3.48-1.93.25-1.08.37-1.61.27-1.07.41-1.59c.06-.23.14-.46.2-.69a6.2,6.2,0,0,0,.14-.65c.19-.93.4-1.85.55-2.8.09-.59.19-1.16.33-1.74s.22-1.14.36-1.7c.26-1.11.55-2.22.84-3.32s.53-1.89.75-2.85.32-2,.53-3c.1-.5.22-1,.35-1.47s.24-.83.33-1.26.2-.76.32-1.13.2-.62.31-.92c0,0,0,0,0,0l.06-.15c0-.12.12-.23.18-.35a.23.23,0,0,1,.07-.07.69.69,0,0,1,.2-.13.2.2,0,0,1,.09-.05,3.55,3.55,0,0,1,.46,0h.45a1.93,1.93,0,0,0,.75-.23,1,1,0,0,0,.31-.21.45.45,0,0,0,.13-.11l.07-.09s0,0,0,0a1.29,1.29,0,0,0,.35-1.15v0A1.28,1.28,0,0,0,78.54,81.08Z"/><path class="cls-1" d="M3.18,83.56h0v0S3.18,83.56,3.18,83.56ZM104.75,63.27l-.58,0H103c-.36,0-.72,0-1.06,0s-.69,0-1,0-.69,0-1.05-.06c-.58,0-1.17,0-1.76-.06-.29,0-.56-.06-.86-.06H95.32c-.38,0-.77,0-1.15,0-.66-.07-1.33-.08-2-.12s-1.33-.08-2-.14-1.11-.05-1.66-.08a16.15,16.15,0,0,0-1.84,0h-.32a.9.9,0,0,0-.23,0c-.49,0-1,0-1.44-.07-.66,0-1.3,0-2,0-1.16-.06-2.31-.09-3.47-.05h-.34c-.58,0-1.18,0-1.77,0-.92,0-1.84,0-2.76,0s-1.73-.07-2.58-.12c-.48,0-1,0-1.44,0s-1.11,0-1.66,0c-1,0-1.93,0-2.89,0s-2,0-3-.05H61.3c-.56,0-1.12,0-1.69,0-.41,0-.81,0-1.21,0s-.88,0-1.33,0-1.11,0-1.67,0l-1.33,0c-.35,0-.69.05-1,.07h-.32c-.38,0-.76,0-1.15.06s-.83.12-1.25.14c-.7.07-1.4.12-2.11.16-.5,0-1,0-1.49,0s-1.29,0-1.93.07c-1.1.06-2.2.11-3.29.25-.55.07-1.1.09-1.66.14l-1.44.12c-.86,0-1.71.13-2.56.23-.47.06-.94.09-1.42.14s-1,.18-1.47.27-1.11.27-1.66.41-1.14.23-1.7.34a30.36,30.36,0,0,0-3.5,1C25,66.17,24,66.57,23,67c-.7.28-1.37.65-2.06,1s-1.45.7-2.16,1.09-1.27.66-1.89,1-1.29.78-1.91,1.19h0s0,0-.06,0l0,0c-.37.23-.73.48-1.09.72s-.71.56-1.06.84l-.28.25a.52.52,0,0,1-.17.12L10.5,74.71c-.64.54-1.29,1.07-1.88,1.66S7.51,77.47,7,78.05l0,0,0,0c-.23.24-.48.51-.72.75l-.42.43a6.35,6.35,0,0,0-.54.61c-.1.14-.2.28-.29.43s0,0,0,.07c-.2.32-.38.65-.56,1,0,0,0,0,0,.06-.23.42-.47.84-.69,1.26-.1.21-.22.41-.32.62h0a.13.13,0,0,1,0,.05s0,.08,0,.12,0,0,0,0,0,0,0,0,0,0,0,0-.06.12-.07.17h0v0h0c-.09.18-.17.36-.26.52s-.14.26-.2.39a1.45,1.45,0,0,0-.22,1,1.37,1.37,0,0,0,.55.86,1.3,1.3,0,0,0,1,.22,1.49,1.49,0,0,0,.67-.32.83.83,0,0,0,.19-.23c.19-.35.4-.71.56-1.06l.12-.27a0,0,0,0,0,0,0,2.37,2.37,0,0,0,.15-.32.13.13,0,0,0,0-.06c.13-.23.24-.45.36-.68.22-.41.45-.8.66-1.21l-.07.16A8.2,8.2,0,0,1,7,82s0,0,0,0a5.92,5.92,0,0,1,.53-.75c.1-.1.2-.21.31-.31a2.27,2.27,0,0,0,.3-.32c.25-.25.5-.51.74-.78s.49-.5.74-.73.52-.53.78-.79c.57-.54,1.15-1,1.74-1.53s1.18-1,1.75-1.46l.17-.14c.59-.5,1.18-1,1.81-1.41h0s.06,0,.1-.06l.64-.41c.87-.54,1.74-1,2.63-1.52s2-1,2.94-1.48c.49-.23.95-.48,1.43-.69s1.05-.41,1.56-.63c1-.38,1.94-.7,2.93-1,.5-.14,1-.26,1.49-.38s1.13-.23,1.69-.35,1.13-.28,1.67-.42,1-.22,1.53-.3.94-.1,1.41-.15l1.27-.14,1.28-.11c.47,0,.94-.06,1.42-.11s1-.07,1.52-.11,1.06-.13,1.59-.17c.95-.06,1.9-.13,2.85-.18h.82c.25,0,.48,0,.72,0,.61,0,1.22,0,1.84-.07s1.1-.07,1.65-.13,1.06-.14,1.59-.16l.68,0h.07L54.68,65l1.39,0h.4c.33,0,.65,0,1,0,.49,0,1,0,1.43,0s.71,0,1.05,0H60q.48,0,1,0l1.2,0,1.22,0c.37,0,.75,0,1.12,0h1.34c.42,0,.85,0,1.28,0,1.1,0,2.2,0,3.3,0,.59,0,1.16,0,1.74,0s1.11.08,1.67.09,1.27,0,1.89,0l2.06-.07,1.3,0a33.82,33.82,0,0,1,3.49.06c.65,0,1.29,0,2,0s1.23.07,1.86,0l-.33,0,.59,0h.24c.56,0,1.11,0,1.67,0,.27,0,.55,0,.83,0s.61,0,.91.08.69,0,1,.06.66,0,1,.06c.67,0,1.35.11,2,.12h1c.38,0,.78,0,1.17,0s.59,0,.9,0,.57,0,.86,0c.61,0,1.22,0,1.84.08s1.39.07,2.09.09a2.94,2.94,0,0,0,.42,0c.62,0,1.24,0,1.86,0h.25l.27,0v0q.09-1.3.27-2.58C105.07,63.29,104.92,63.27,104.75,63.27Z"/><path class="cls-1" d="M14.85,71.3l.07,0-.07,0Z"/><path class="cls-1" d="M3.25,83.41l0-.06,0,.06Z"/><path class="cls-1" d="M3.06,83.78v0h0l0,0Z"/><path class="cls-1" d="M111.69,80.32h0Zm.13,0h0a0,0,0,0,1,0,0,.29.29,0,0,1,.11,0A.13.13,0,0,1,111.82,80.3Zm8-13.91A3.38,3.38,0,0,0,117.34,64a4.42,4.42,0,0,0-1-.16h0l-.29,0h-.33l-.66-.07a2.48,2.48,0,0,0-.27,0,.48.48,0,0,1,.18,0,4.21,4.21,0,0,0-.51,0c-.37,0-.74,0-1.11-.05a3.54,3.54,0,0,1-.45,0h-.29l-.77,0h-.73a3.41,3.41,0,0,0-.55,0h-.23c-.11,0-.23,0-.35,0l-.86,0h-.24l-.22,0h-.13l-.48,0a1.87,1.87,0,0,1-.34,0s0,0,0,0l-.6-.06-.46,0a3.16,3.16,0,0,1-.32,0c-.28,0-.52-.1-.8-.1h-.1l-.66,0a.52.52,0,0,1-.18,0c-.54,0-1.07.06-1.61.05a1.26,1.26,0,0,0-.89.44,1.32,1.32,0,0,0-.32,1,1.35,1.35,0,0,0,.45.9,1,1,0,0,0,.39.21,1.7,1.7,0,0,0,.57.11c.51,0,1,0,1.54-.07H105l.56,0a.53.53,0,0,0,.12,0,3.15,3.15,0,0,0,.61.06,2.07,2.07,0,0,1,.35,0l.43,0,.63,0,.75,0,.46,0c.15,0,.31,0,.46,0l.46,0a4,4,0,0,0,.69,0h.28l.45,0c.15,0,.29,0,.43,0H112l.71,0,.57,0,.75,0h.36l.25,0,.48.06c.26,0,.51,0,.77,0h.1a3.58,3.58,0,0,1,.74.13l.27.11a1.14,1.14,0,0,1,.11.11l.08.11a3.86,3.86,0,0,1,.19.54,3.59,3.59,0,0,1,0,.46,3.93,3.93,0,0,1,.06.6l-.09.79a6.22,6.22,0,0,1-.21,1.06.38.38,0,0,0,0-.12c-.21.67-.33,1.36-.5,2-.11.54-.15,1.1-.29,1.64-.08.19-.15.37-.23.55a6.85,6.85,0,0,0-.28,1,7.31,7.31,0,0,1-.29,1.07l-.06.15-.15.43c-.1.3-.22.61-.31.92s-.1.47-.16.7a1.84,1.84,0,0,1-.16.31,1,1,0,0,1-.14.16,3.91,3.91,0,0,1-.6.4,7.28,7.28,0,0,1-.71.31c-.3.1-.59.17-.88.25a2.63,2.63,0,0,1-.39.06h0a0,0,0,0,0,0,0v0s0,0,0,0h-.09a.13.13,0,0,1-.09,0h-.08c-.48.08-1,.09-1.45.13s-.63,0-1,0-.62,0-.93,0c-1.41.08-2.81.21-4.22.31-1.11.07-2.22.2-3.33.2-.61,0-1.22,0-1.82,0s-1.12,0-1.69-.07l-.51,0h-.13a7.11,7.11,0,0,0-1.13,0c-.39,0-.76,0-1.13.07A14.46,14.46,0,0,1,93,81l-1.33,0H91.4l-.51,0a.52.52,0,0,0-.17,0h0l-.64,0c-.73-.06-1.45-.06-2.16-.09a5.08,5.08,0,0,0-.78,0c-.28,0-.57,0-.85,0h-.38l-.22,0-.71,0a7.37,7.37,0,0,0-.82,0,2.81,2.81,0,0,1-.41,0h-.47l-.11,0c-.29,0-.58-.15-.88-.19a8,8,0,0,0-1.38-.06l-1,.07-.52,0c-.22,0-.42.05-.63.09l.11,0-.46.07h0l-.25,0a4.1,4.1,0,0,0-.7.12l.34-.08c-.24,0-.5.08-.73.15a2.26,2.26,0,0,1-.33.13,2.46,2.46,0,0,0-.29.09l-.17.06a3.73,3.73,0,0,0-.46.09,2.1,2.1,0,0,0-1,.62,1.32,1.32,0,0,0,.13,1.85,1.25,1.25,0,0,0,.74.31h.12a1.51,1.51,0,0,0,.47-.09,1.22,1.22,0,0,0,.35-.2l.35-.07a2.58,2.58,0,0,0,.39-.14l.28-.08.24-.1a3,3,0,0,1,.32-.06c.15,0,.32,0,.47,0a5.15,5.15,0,0,0,.59-.11c.17,0,.35,0,.53,0l.72,0a9.07,9.07,0,0,1,1-.06A3.85,3.85,0,0,1,82,83l.31.06a1.5,1.5,0,0,0,.46.09,5.54,5.54,0,0,0,.6.06h.23a3.89,3.89,0,0,0,.48,0h.43l.46,0h.09a.65.65,0,0,1,.19,0h.2l.73,0h.18c1,.05,1.93,0,2.9.05h.35l.41,0h.19a.07.07,0,0,0,.06,0h0a1.3,1.3,0,0,0,.34,0h0c1.19.09,2.36.14,3.55.15.36,0,.7,0,1.06,0s.83-.06,1.25,0c.2,0,.4,0,.59,0a39.61,39.61,0,0,0,5.11,0l4.45-.32,1.86-.13c.54,0,1.11,0,1.66-.06s1.07-.06,1.61-.13a2.27,2.27,0,0,0,.35,0l.24,0,.1,0a.1.1,0,0,0,.07,0,11.2,11.2,0,0,0,1.5-.34,7.79,7.79,0,0,0,1.15-.49l.11,0,.2-.1a6.65,6.65,0,0,0,.66-.42,3.94,3.94,0,0,0,1-1.09,7.59,7.59,0,0,0,.68-2c0-.13.1-.27.14-.4l.11-.27c0-.1.07-.21.11-.31.09-.3.19-.61.27-.91s.13-.62.22-.92a9.45,9.45,0,0,0,.43-1.23c.06-.33.14-.68.18-1s.17-.77.23-1.15a8.46,8.46,0,0,1,.24-1.06,7.4,7.4,0,0,0,.27-1.34,9.84,9.84,0,0,0,.09-1.62A6.48,6.48,0,0,0,119.82,66.39Z"/><path class="cls-1" d="M78.67,81.15a1.61,1.61,0,0,0-.35-.55,1,1,0,0,0-.32-.23l-.16-.06a1.09,1.09,0,0,0-.4-.07,1.58,1.58,0,0,0-.42.06,3.78,3.78,0,0,0-.74.29l-.09,0-.08,0-.3.14-.18.07-.53.35a12.62,12.62,0,0,0-1.16.88,1.35,1.35,0,0,0-.57.83,1.1,1.1,0,0,0,0,.36,1.33,1.33,0,0,0,.2.63,1.39,1.39,0,0,0,.83.57,1.24,1.24,0,0,0,1-.19l.23-.18.16-.14h0a9.43,9.43,0,0,1,.88-.64l.47-.29.17-.07a3.13,3.13,0,0,1,.51-.19,1.32,1.32,0,0,0,.78-.66,1.42,1.42,0,0,0,.14-.6v0A1.18,1.18,0,0,0,78.67,81.15Z"/><path class="cls-1" d="M83.65,80.36h0Zm-.12,0h0Zm7.88,1.32a1.34,1.34,0,0,0-.66-.78s0,0,0,0h0a2,2,0,0,0-.94-.16c-.19,0-.38,0-.56,0s-.52,0-.78,0-.6,0-.9,0h-.87l-1-.09-.51,0h-.27a.08.08,0,0,0-.06,0L84,80.4a2.4,2.4,0,0,1-.28,0h-.25a2.53,2.53,0,0,0-.67,0,5.43,5.43,0,0,1-.57,0,3.86,3.86,0,0,0-.76,0h-.44a8.42,8.42,0,0,1-.87,0,9.81,9.81,0,0,0-1.09-.08h-.23a5.93,5.93,0,0,0-1,.13l-.42.08a7.06,7.06,0,0,0-1.13.35l-.36.17a3.47,3.47,0,0,0-.57.37,9.48,9.48,0,0,0-.79.63l.06-.07a4.87,4.87,0,0,0-.59.53,3.88,3.88,0,0,0-.47.6,2.43,2.43,0,0,0-.14.2,1,1,0,0,1-.09.13l-.19.32a1.3,1.3,0,0,0,.57,1.76,1.26,1.26,0,0,0,1.55-.3,1.44,1.44,0,0,0,.22-.27l.19-.31a4.06,4.06,0,0,1,.43-.5l.13-.1.1-.09c.17-.14.35-.25.51-.38a1,1,0,0,0,.13-.09,1.67,1.67,0,0,1,.28-.18,6.1,6.1,0,0,1,.9-.26l.14,0a6.37,6.37,0,0,1,1.15-.09,4.78,4.78,0,0,0,.65.07,4.93,4.93,0,0,0,.66,0,5.37,5.37,0,0,0,.57,0,4.43,4.43,0,0,1,.51,0h0a.22.22,0,0,0,.11,0h0c.36,0,.7,0,1.06,0l.36,0a.2.2,0,0,0,.1,0h.14A3,3,0,0,0,84,83l-.34,0,.55,0,.5,0,.31,0c.29,0,.57.06.87.08s.88.09,1.33.1l1,0a3.09,3.09,0,0,0,.43,0h.49a6.12,6.12,0,0,0,.74,0,1.58,1.58,0,0,0,.75,0,1.4,1.4,0,0,0,.78-.67A1.29,1.29,0,0,0,91.41,81.68Z"/><path class="cls-1" d="M55.88,84s0-.1,0-.15a6.74,6.74,0,0,0-.19-1.42.53.53,0,0,1,0-.12.08.08,0,0,0,0,0,.15.15,0,0,0,0-.06h0s0,0,0,0a.33.33,0,0,0,0-.13s0,0,0,0a.25.25,0,0,0,0-.1v0s0,0,0-.06a2.88,2.88,0,0,0-.19-.45s0-.1-.09-.16,0,0,0,0a2.15,2.15,0,0,0-.6-.64,5.35,5.35,0,0,0-.64-.41L53.77,80l-.2-.13-.28-.14a2.9,2.9,0,0,0-.83-.34l-.08,0-.4,0a11.54,11.54,0,0,0-1.33-.11H48c-.62,0-1.22,0-1.82,0s-1.21.05-1.83.06-1.25.11-1.88.2-1.29.11-1.94.15c-1.31.08-2.6.45-3.91.64a14.68,14.68,0,0,0-1.61.29c-.75.19-1.49.45-2.24.68a27.92,27.92,0,0,0-5.39,2.25h0a37.71,37.71,0,0,0-3.54,2.31A21.16,21.16,0,0,0,22,87.3a15.57,15.57,0,0,0-3.53,4.31c-.18.35-.32.74-.48,1.11a10.36,10.36,0,0,0-.44,1.17,3.37,3.37,0,0,0-.09.34c-.05.25-.1.48-.14.74s-.05.55-.07.82c-.06.52-.15,1-.21,1.56a8.7,8.7,0,0,0,0,2,13.78,13.78,0,0,0,.22,1.71c.11.51.22,1,.34,1.52l.16.58a1.19,1.19,0,0,0,.71.71,1.36,1.36,0,0,0,1,0,1.27,1.27,0,0,0,.72-.72,1.14,1.14,0,0,0,.08-.62,1.84,1.84,0,0,0-.08-.38s0-.09,0-.12a18.65,18.65,0,0,1-.55-3.77,12.34,12.34,0,0,1,.2-1.83c.09-.59.09-1.18.23-1.76.13-.41.31-.78.46-1.18s.3-.73.47-1.09.61-.81.91-1.22c.18-.23.35-.46.53-.68a5.68,5.68,0,0,1,.47-.51,23.16,23.16,0,0,1,3-2.46c.95-.65,1.91-1.33,2.92-1.9a.67.67,0,0,1,.12-.06A25.7,25.7,0,0,1,32,84.27c.61-.23,1.25-.43,1.88-.63s1.07-.35,1.61-.51,1-.2,1.48-.27,1.29-.24,2-.35a15.74,15.74,0,0,1,1.93-.28c.66,0,1.31-.08,2-.16a19.58,19.58,0,0,1,2.41-.2c.72,0,1.42-.09,2.14-.1h2a3,3,0,0,0,.43,0c.31,0,.6,0,.9,0s.51.06.77.07a1.06,1.06,0,0,0,.2,0l.32,0h0l.26.15.1,0,.12.08a2.4,2.4,0,0,0,.47.27l.14.1s0,.11,0,.16,0,.06,0,.08h0a8,8,0,0,1,.16,1.09,1.45,1.45,0,0,0,0,.36s0,.07,0,.1a3.7,3.7,0,0,1-.07.38,1.37,1.37,0,0,0,.07-.24c0,.15-.07.31-.11.47l0,.16h0a.91.91,0,0,0,0,.23,1.27,1.27,0,0,0,.1.46,1.32,1.32,0,0,0,.72.73,1.36,1.36,0,0,0,1.33-.19,1.09,1.09,0,0,0,.38-.53,2.68,2.68,0,0,0,.15-.65,3.33,3.33,0,0,0,.09-.78v0A1,1,0,0,0,55.88,84Z"/><path class="cls-1" d="M2,103.57H2Zm18.46-.12a.08.08,0,0,1,0-.06s0,0,0,0h0s0,0,0-.06l-.12-.47c0-.08,0-.16-.05-.23s-.09-.35-.14-.52a1.26,1.26,0,0,0-.71-.72,1.31,1.31,0,0,0-1,0,1.28,1.28,0,0,0-.73.71,1.45,1.45,0,0,0-.09.56,3.58,3.58,0,0,0,.08.43c0,.07,0,.14.06.2s0,0,0,0a.36.36,0,0,0,0,.1.22.22,0,0,0,0,.08l.12.5a.08.08,0,0,1,0,0,1.89,1.89,0,0,1-.09.21l-.19.26-.17.11a1.36,1.36,0,0,1-.33.14,9,9,0,0,0-.9.21,6.13,6.13,0,0,0-.6.22c-.36.12-.71.27-1.07.38-.18,0-.36.06-.54.09a7.3,7.3,0,0,0-.93.19,5.06,5.06,0,0,1-.87.12,7.77,7.77,0,0,0-1.52.1,4.92,4.92,0,0,1-.67.1,6.6,6.6,0,0,0-.67.14,12.41,12.41,0,0,1-1.33.17c-.44,0-.86.13-1.28.15a5,5,0,0,1-.87-.11l-.24-.12a5.4,5.4,0,0,1-.46-.33A.73.73,0,0,1,5,106l-.41-.29a2.35,2.35,0,0,1-.23-.32,1.16,1.16,0,0,0-.13-.22,6.84,6.84,0,0,0-.37-.65,6,6,0,0,0-.36-.52c0-.15,0-.27-.06-.41a2.34,2.34,0,0,0-.09-.46,2.61,2.61,0,0,0-.06-.27l-.06-.32a.1.1,0,0,1,0-.07v-.06a1.41,1.41,0,0,0,0-.51h0a.87.87,0,0,0-.19-.37,1.28,1.28,0,0,0-.88-.53h-.2a1.07,1.07,0,0,0-.49.09,1.48,1.48,0,0,0-.56.42,1.25,1.25,0,0,0-.26.86v.11a2.32,2.32,0,0,0,0,.46c0,.2.09.39.13.58a.13.13,0,0,1,0,0c.09.44.12.86.24,1.29a6.38,6.38,0,0,0,.82,1.37c.08.15.16.31.24.45s0,0,0,0l0,0a4,4,0,0,0,.47.64,4.69,4.69,0,0,0,.46.42c.09.06.18.14.28.22a4.09,4.09,0,0,0,.51.37,5.8,5.8,0,0,0,.91.52,6.21,6.21,0,0,0,.77.21c.15,0,.3,0,.46.06.32,0,.62.06,1,0,.5,0,1-.14,1.52-.18l.66-.08.47-.06.4-.1c.26,0,.55,0,.81-.12a5.93,5.93,0,0,1,.86-.13,7.62,7.62,0,0,0,1.07,0,9.09,9.09,0,0,0,1.28-.27l-.32.09c.28-.08.56-.09.85-.15s.69-.16,1-.26c.52-.15,1-.38,1.52-.55l.4-.06a6.24,6.24,0,0,0,.8-.26,3.26,3.26,0,0,0,1.28-.94l.28-.39a6.37,6.37,0,0,0,.39-.73,2.49,2.49,0,0,0,.14-1.56Z"/><path class="cls-1" d="M14.43,74.57s0,0,0,0h0Zm.78-2.48a1.37,1.37,0,0,0-1.38.18.62.62,0,0,1-.12.08l-.14.07-.18.11-.67.42a1.52,1.52,0,0,0-.33.18.52.52,0,0,1-.17.12c-.14.08-.25.17-.38.26a3.29,3.29,0,0,1-.33.23,4.74,4.74,0,0,0-.74.68c-.34.3-.71.56-1,.88l.25-.23-.22.17a2.53,2.53,0,0,0-.31.28c-.24.19-.5.37-.73.56a10.26,10.26,0,0,0-.79.82c-.11.11-.24.2-.36.33l-.16.18-.08.07c0,.06-.11.11-.16.16l0,0a11.16,11.16,0,0,0-.91,1c-.16.2-.32.39-.47.6l-.28.35c-.19.22-.38.45-.55.69,0,0,0,0,0,.07a.61.61,0,0,0-.1.14c-.23.36-.42.73-.63,1.1-.1.15-.19.32-.28.48s-.14.28-.22.43l0,0a.35.35,0,0,1,0,.08s0,0,0,0,0,0,0,0a.44.44,0,0,1,0,.09s0,0,0,0l0,0a1.42,1.42,0,0,1-.11.18l-.3.49a.05.05,0,0,0,0,0,.75.75,0,0,0-.1.17,12.31,12.31,0,0,0-1.07,2.5,1,1,0,0,1,0,.16s0,.1-.05.17,0,0,0,.06l0,.12a.37.37,0,0,1,0,.09h0s0,0,0,0a.78.78,0,0,0-.05.14c-.08.26-.2.5-.29.74s-.18.62-.26.91C1,89.13.89,89.56.81,90s-.17.83-.23,1.24C.48,91.82.33,92.4.25,93s-.13,1-.18,1.45A5.8,5.8,0,0,0,0,95c0,.25,0,.5,0,.75v.36c0,.26,0,.5,0,.75,0-.11,0-.23,0-.34a7.07,7.07,0,0,0,0,1c0,.3.08.6.1.91.07.55.13,1.1.2,1.65s.12,1,.19,1.56l.06.65v0c0,.29.08.55.13.82a9.85,9.85,0,0,0,1.27,3l.23.4-.06-.12a5.52,5.52,0,0,0,.43.68c.16.22.32.42.47.64a.57.57,0,0,1,.1.13,1.23,1.23,0,0,0,.69.46A1.28,1.28,0,0,0,5,108.2a1.34,1.34,0,0,0,.27-1.84L5,106a7.9,7.9,0,0,1-.64-.88c-.08-.13-.15-.26-.23-.38s0,0,0,0a11.44,11.44,0,0,1-.8-1.87c0-.15-.05-.29-.07-.44a4.4,4.4,0,0,1,0-.51h0a3,3,0,0,0,0-.31c-.07-.51-.12-1-.18-1.53s-.13-1.12-.19-1.68c0-.3-.08-.6-.1-.92a5.62,5.62,0,0,1-.08-.73c0,.11,0,.19,0,.3,0-.39,0-.76,0-1.14,0,0,0,0,0,.05v-.46c0-.46.1-.91.15-1.35A12.69,12.69,0,0,1,3,92.49c.18-.9.33-1.79.52-2.69.08-.31.13-.63.22-1a2.88,2.88,0,0,1,.13-.31,4.3,4.3,0,0,0,.28-.81h0a.25.25,0,0,0,0-.1c.07-.19.12-.37.17-.56v0a1,1,0,0,0,0-.1,5.34,5.34,0,0,1,.18-.52c.06-.14.11-.28.18-.42A4.9,4.9,0,0,1,5,85.48c.09-.17.15-.35.26-.52a.46.46,0,0,0,0-.09,2.74,2.74,0,0,0,.23-.36l.17-.26a.6.6,0,0,0,.06-.11s0,0,0-.06c.13-.21.27-.42.39-.65s.12-.26.19-.39.3-.53.46-.8L7,82s0,0,0,0c.22-.3.45-.6.7-.88l.14-.18c.12-.18.26-.34.4-.52L8.59,80c.12-.12.22-.26.35-.41l.13-.11L9.5,79l.15-.13c.16-.13.29-.28.43-.41s.2-.24.32-.36.26-.2.39-.29.32-.27.48-.41a.33.33,0,0,1,.14-.12,1.61,1.61,0,0,0,.29-.24c.13-.12.28-.22.42-.33s.44-.41.64-.62l.38-.3c.18-.12.35-.27.53-.37l-.23.12a3.45,3.45,0,0,0,.41-.25l.07,0a1.51,1.51,0,0,0,.35-.2c.13-.08.24-.17.37-.26a.75.75,0,0,1,.13-.06l.19-.11.1-.06h0a1.57,1.57,0,0,0,.23-.13,1.42,1.42,0,0,0,.55-.61.43.43,0,0,0,0-.11h0A1.32,1.32,0,0,0,15.21,72.09Z"/><path class="cls-1" d="M117.41,69.29a6.22,6.22,0,0,1-.21,1.06.38.38,0,0,0,0-.12c-.21.67-.33,1.36-.5,2-.11.54-.15,1.1-.29,1.64-.08.19-.15.37-.23.55a6.85,6.85,0,0,0-.28,1,7.31,7.31,0,0,1-.29,1.07l-.06.15-.15.43c-.1.3-.22.61-.31.92s-.1.47-.16.7a1.84,1.84,0,0,1-.16.31,1,1,0,0,1-.14.16,3.91,3.91,0,0,1-.6.4,7.28,7.28,0,0,1-.71.31c-.3.1-.59.17-.88.25a2.63,2.63,0,0,1-.39.06h0s0,0,0,0h-.09a.13.13,0,0,1-.09,0h-.08c-.48.08-1,.09-1.45.13s-.63,0-1,0-.62,0-.93,0c-1.41.08-2.81.21-4.22.31-1.11.07-2.22.2-3.33.2-.61,0-1.22,0-1.82,0s-1.12,0-1.69-.07l-.51,0h-.13a7.11,7.11,0,0,0-1.13,0c-.39,0-.76,0-1.13.07A14.46,14.46,0,0,1,93,81l-1.33,0H91.4l-.51,0a.52.52,0,0,0-.17,0h0a2,2,0,0,0-.94-.16c-.19,0-.38,0-.56,0s-.52,0-.78,0-.6,0-.9,0h-.87l-1-.09-.51,0h-.27a.08.08,0,0,0-.06,0L84,80.4a2.4,2.4,0,0,1-.28,0h-.25a2.53,2.53,0,0,0-.67,0,5.43,5.43,0,0,1-.57,0,3.86,3.86,0,0,0-.76,0h-.44a8.42,8.42,0,0,1-.87,0,9.81,9.81,0,0,0-1.09-.08h-.23a5.93,5.93,0,0,0-1,.13,1.09,1.09,0,0,0-.4-.07,1.58,1.58,0,0,0-.42.06,3.78,3.78,0,0,0-.74.29l-.09,0-.08,0-.3.14a1.42,1.42,0,0,0-.36,0,2.11,2.11,0,0,0-.55.25,3.21,3.21,0,0,0-1.51,1.51A5.6,5.6,0,0,0,73,83.7c-.13.4-.28.8-.39,1.21s-.22.91-.36,1.35-.27.95-.37,1.42-.23,1.08-.32,1.61-.17,1.08-.27,1.6S71,92,70.89,92.48s-.23,1-.39,1.48c-.32,1.08-.6,2.18-.85,3.28-.13.58-.23,1.17-.36,1.74s-.26,1.14-.35,1.71-.18,1-.28,1.56-.2.86-.27,1.31c-.15,1-.51,1.91-.74,2.87-.13.54-.22,1.09-.36,1.61s-.32,1.27-.46,1.91-.32,1.12-.46,1.7-.23,1.29-.38,1.93c-.31,1.27-.61,2.56-.88,3.87-.23,1.14-.45,2.29-.74,3.42s-.64,2.36-.94,3.54-.44,2.33-.7,3.49c-.11.49-.2,1-.3,1.49s-.25,1.08-.38,1.62-.24,1.15-.37,1.71-.26,1.18-.41,1.76c-.29,1.19-.48,2.41-.7,3.62-.1.58-.23,1.15-.36,1.73s-.23,1.22-.34,1.85c-.23,1.1-.49,2.2-.69,3.32-.1.62-.22,1.24-.35,1.86s-.28,1.21-.41,1.81-.24,1.13-.38,1.69-.27,1-.38,1.48c-.53,2.2-.9,4.41-1.36,6.62-.24,1.15-.52,2.29-.75,3.44-.1.55-.18,1.08-.29,1.63s-.23,1.21-.32,1.82-.22,1.12-.35,1.69-.26,1.15-.37,1.72c-.22,1.06-.46,2.11-.75,3.13-.17.57-.29,1.14-.41,1.7s-.27,1.31-.39,2c-.19,1-.34,2.12-.52,3.18-.19,1.24-.47,2.47-.67,3.72-.15,1.09-.42,2.15-.53,3.23-.05.53-.17,1-.26,1.56a2.91,2.91,0,0,1-.18.64c-.1.33-.16.67-.24,1a1.33,1.33,0,0,0,0,.66,3.48,3.48,0,0,1-.1.44c0,.11-.05.25-.09.38s-.09.32-.13.47c-.06.31-.1.62-.17.92-.11.63-.24,1.23-.35,1.86a3.66,3.66,0,0,1-.13.44c0,.16-.05.32-.1.48a2.74,2.74,0,0,0-.09.39c0,.16-.11.31-.14.46-.11.4-.17.82-.29,1.22a8.58,8.58,0,0,1-.46.83c-.15.28-.29.57-.47.84a.8.8,0,0,1-.13.13,2,2,0,0,0-.39.47,1,1,0,0,1-.18.18.21.21,0,0,1-.07,0,.85.85,0,0,1-.24.05l-.07,0-.16,0h-.13a4.06,4.06,0,0,0-.69.16l-.29.1h0l-.32,0c-.2,0-.42,0-.64,0a4.31,4.31,0,0,0-.88,0,7.66,7.66,0,0,1-.83,0,4.46,4.46,0,0,0-.73,0c-.28,0-.57.05-.85.09s-.52,0-.77,0-.67.12-1,.19l-1,.13c-.25,0-.52.05-.78.1l-.33.08h-.2l-.46,0c-.21,0-.41,0-.63,0l-.61,0a3.23,3.23,0,0,0-.62,0h-.48c-.23,0-.46-.06-.69-.06a5.33,5.33,0,0,1-.57,0,1.36,1.36,0,0,1-.29-.06c-.18-.09-.36-.18-.52-.28s0,0,0,0a.58.58,0,0,0,0-.18,1.12,1.12,0,0,0,0-.21,2.34,2.34,0,0,0,0-.38,2.08,2.08,0,0,0,.05-.36,2.46,2.46,0,0,1,.07-.29,3.09,3.09,0,0,0,.14-.46,2.53,2.53,0,0,0,.06-.49c.07-.35.13-.71.17-1.08,0,.11,0,.23,0,.33,0-.19.08-.4.12-.59s.12-.6.17-.91a1.33,1.33,0,0,0-.16-1c.09-.47.22-1,.33-1.41s.17-.72.27-1.08a10.49,10.49,0,0,0,.2-1.25c.08-.5.17-1,.22-1.5l.15-1c.23-1.48.53-2.94.75-4.42a11.78,11.78,0,0,1,.21-1.16c.13-.55.23-1.09.31-1.65l0,.34c.13-.75.3-1.49.47-2.23.08-.35.16-.69.21-1s.08-.81.13-1.21.11-.73.16-1.1c.14-.87.32-1.75.53-2.61.11-.45.23-.89.32-1.36s.12-1,.18-1.5c0-.19.06-.39.08-.58.09-.6.22-1.19.35-1.79s.32-1.21.46-1.84c.27-1.24.55-2.49.84-3.74.25-1.08.5-2.16.69-3.25.05-.27.13-.52.18-.78s.13-.64.22-1c.14-.53.27-1.07.41-1.61.33-1.22.64-2.45.92-3.7s.6-2.55.89-3.81c.14-.6.31-1.19.45-1.78s.24-1.16.37-1.74l.15-.84c.06-.33.16-.66.22-1s.12-.54.18-.8.12-.53.19-.8.12-.55.19-.83a7.84,7.84,0,0,0,.18-.81c0-.25.13-.48.19-.74a8.64,8.64,0,0,0,.15-.91l.15-.8c0-.38.09-.76.11-1.13s.09-.57.13-.84c0,0,0,0,0-.05h0c.06-.22.09-.44.14-.66s.08-.46.12-.69.1-.39.14-.58.08-.44.12-.66.1-.43.14-.65a8.27,8.27,0,0,0,.12-.85c.08-.5.2-1,.28-1.47.16-.77.32-1.52.43-2.29,0,.11,0,.23,0,.36.1-.49.2-1,.26-1.43,0-.29,0-.57.07-.85s.11-.69.19-1a8.86,8.86,0,0,0,.22-1.12c0-.25.11-.48.16-.73s.14-.5.21-.74.16-.54.23-.81.18-.52.24-.8c.15-.71.23-1.42.41-2.13.08-.33.17-.66.25-1a6.6,6.6,0,0,0,.18-1.26c.09-.52.2-1,.29-1.57s.21-1.14.34-1.71c.27-1.2.43-2.43.7-3.63.14-.6.26-1.2.41-1.8s.3-1.13.42-1.69c.07-.32.17-.63.25-.93s.11-.58.18-.86c.1-.5.19-1,.28-1.51.2-1.07.47-2.13.7-3.2s.54-2.27.83-3.39c.15-.58.36-1.14.51-1.71s.3-1.12.44-1.66.25-1.26.37-1.87.28-1.19.42-1.79.18-1,.31-1.56c0,0,0,0,0-.06a1.09,1.09,0,0,0,.38-.53,2.68,2.68,0,0,0,.15-.65,3.33,3.33,0,0,0,.09-.78v0a1,1,0,0,0,0-.38s0-.1,0-.15a6.74,6.74,0,0,0-.19-1.42.53.53,0,0,0,0-.12.08.08,0,0,0,0,0,.15.15,0,0,0,0-.06v0s0,0,0,0a.33.33,0,0,0,0-.13s0,0,0,0a.25.25,0,0,0,0-.1v0s0,0,0-.06a2.88,2.88,0,0,0-.19-.45s0-.1-.09-.16,0,0,0,0a2.15,2.15,0,0,0-.6-.64,5.35,5.35,0,0,0-.64-.41L53.77,80l-.2-.13a1.38,1.38,0,0,0-1-.51h-.14l-.4,0a11.54,11.54,0,0,0-1.33-.11H48c-.62,0-1.22,0-1.82,0s-1.21.05-1.83.06-1.25.11-1.88.2-1.29.11-1.94.15c-1.31.08-2.6.45-3.91.64a14.68,14.68,0,0,0-1.61.29c-.75.19-1.49.45-2.24.68a27.92,27.92,0,0,0-5.39,2.25h0a37.71,37.71,0,0,0-3.54,2.31A21.16,21.16,0,0,0,22,87.3a15.57,15.57,0,0,0-3.53,4.31c-.18.35-.32.74-.48,1.11a10.36,10.36,0,0,0-.44,1.17,3.37,3.37,0,0,0-.09.34c-.05.25-.1.48-.14.74s-.05.55-.07.82c-.06.52-.15,1-.21,1.56a8.7,8.7,0,0,0,0,2,13.78,13.78,0,0,0,.22,1.71c.11.51.22,1,.34,1.52a3.58,3.58,0,0,0,.08.43c0,.07,0,.14.06.2s0,0,0,0a.36.36,0,0,0,0,.1.22.22,0,0,0,0,.08l.12.5a.08.08,0,0,1,0,0,1.89,1.89,0,0,1-.09.21l-.19.26-.17.11a1.36,1.36,0,0,1-.33.14,9,9,0,0,0-.9.21,6.13,6.13,0,0,0-.6.22c-.36.12-.71.27-1.07.38-.18,0-.36.06-.54.09a7.3,7.3,0,0,0-.93.19,5.06,5.06,0,0,1-.87.12,7.77,7.77,0,0,0-1.52.1,4.92,4.92,0,0,1-.67.1,6.6,6.6,0,0,0-.67.14,12.41,12.41,0,0,1-1.33.17c-.44,0-.86.13-1.28.15a5,5,0,0,1-.87-.11l-.24-.12a5.4,5.4,0,0,1-.46-.33A.73.73,0,0,1,5,106a7.9,7.9,0,0,1-.64-.88c-.08-.13-.15-.26-.23-.38s0,0,0,0a11.44,11.44,0,0,1-.8-1.87c0-.15-.05-.29-.07-.44a1.41,1.41,0,0,0,0-.51h0a3,3,0,0,0,0-.31c-.07-.51-.12-1-.18-1.53s-.13-1.12-.19-1.68c0-.3-.08-.6-.1-.92a5.62,5.62,0,0,1-.08-.73c0,.11,0,.19,0,.3,0-.39,0-.76,0-1.14,0,0,0,0,0,.05v-.46c0-.46.1-.91.15-1.35A12.69,12.69,0,0,1,3,92.49c.18-.9.33-1.79.52-2.69.08-.31.13-.63.22-1a2.88,2.88,0,0,1,.13-.31,4.3,4.3,0,0,0,.28-.81h0a.25.25,0,0,0,0-.1c.07-.19.12-.37.17-.56v0a1,1,0,0,0,0-.1,5.34,5.34,0,0,1,.18-.52.83.83,0,0,0,.19-.23c.19-.35.4-.71.56-1.06l.12-.27a0,0,0,0,0,0,0,2.37,2.37,0,0,0,.15-.32.13.13,0,0,0,0-.06c.13-.23.24-.45.36-.68.22-.41.45-.8.66-1.21l-.07.16A8.2,8.2,0,0,1,7,82s0,0,0,0c.22-.3.45-.6.7-.88l.14-.18a2.27,2.27,0,0,0,.3-.32c.25-.25.5-.51.74-.78s.49-.5.74-.73.52-.53.78-.79c.57-.54,1.15-1,1.74-1.53s1.18-1,1.75-1.46a1.51,1.51,0,0,0,.35-.2c.13-.08.24-.17.37-.26a.75.75,0,0,1,.13-.06l.19-.11.1-.06h0a1.57,1.57,0,0,0,.23-.13,1.42,1.42,0,0,0,.55-.61.43.43,0,0,0,0-.11h0s.06,0,.1-.06l.64-.41c.87-.54,1.74-1,2.63-1.52s2-1,2.94-1.48c.49-.23.95-.48,1.43-.69s1.05-.41,1.56-.63c1-.38,1.94-.7,2.93-1,.5-.14,1-.26,1.49-.38s1.13-.23,1.69-.35,1.13-.28,1.67-.42,1-.22,1.53-.3.94-.1,1.41-.15l1.27-.14,1.28-.11c.47,0,.94-.06,1.42-.11s1-.07,1.52-.11,1.06-.13,1.59-.17c.95-.06,1.9-.13,2.85-.18h.82c.25,0,.48,0,.72,0,.61,0,1.22,0,1.84-.07s1.1-.07,1.65-.13,1.06-.14,1.59-.16l.68,0h.07L54.68,65l1.39,0h.4c.33,0,.65,0,1,0,.49,0,1,0,1.43,0s.71,0,1.05,0H60q.48,0,1,0l1.2,0,1.22,0c.37,0,.75,0,1.12,0h1.34c.42,0,.85,0,1.28,0,1.1,0,2.2,0,3.3,0,.59,0,1.16,0,1.74,0s1.11.08,1.67.09,1.27,0,1.89,0l2.06-.07,1.3,0a33.82,33.82,0,0,1,3.49.06c.65,0,1.29,0,2,0s1.23.07,1.86,0l-.33,0,.59,0h.24c.56,0,1.11,0,1.67,0,.27,0,.55,0,.83,0s.61,0,.91.08.69,0,1,.06.66,0,1,.06c.67,0,1.35.11,2,.12h1c.38,0,.78,0,1.17,0s.59,0,.9,0,.57,0,.86,0c.61,0,1.22,0,1.84.08s1.39.07,2.09.09a2.94,2.94,0,0,0,.42,0,1.7,1.7,0,0,0,.57.11c.51,0,1,0,1.54-.07l.27,0v0l.56,0a.53.53,0,0,0,.12,0,3.15,3.15,0,0,0,.61.06,2.07,2.07,0,0,1,.35,0l.43,0,.63,0,.75,0,.46,0c.15,0,.31,0,.46,0l.46,0a4,4,0,0,0,.69,0h.28l.45,0c.15,0,.29,0,.43,0H112l.71,0,.57,0,.75,0h.36l.25,0,.48.06c.26,0,.51,0,.77,0h.1a3.58,3.58,0,0,1,.74.13l.27.11a1.14,1.14,0,0,1,.11.11l.08.11a3.86,3.86,0,0,1,.19.54,3.59,3.59,0,0,1,0,.46,3.93,3.93,0,0,1,.06.6Z"/><path class="cls-1" d="M200.25,63.77a1.24,1.24,0,0,0-.64-.2.83.83,0,0,0-.22,0,1.79,1.79,0,0,1-.52.12,2.53,2.53,0,0,0-.7.2l0,0a33.86,33.86,0,0,0-1.38.89,2.91,2.91,0,0,0-.43.43l-.25.28-.1.11,0,0a3.86,3.86,0,0,0-.3.38,3.81,3.81,0,0,0-.31.56,1.51,1.51,0,0,0-.14.35l-.09.23c-.09.2-.12.41-.2.6s-.12.44-.21.65a5.11,5.11,0,0,0-.22.79,2.76,2.76,0,0,0-.08.27,2.6,2.6,0,0,0-.11.62c-.05.21-.12.41-.16.63s-.05.32-.07.48a5.85,5.85,0,0,0-.15.75l-.07.52a2.34,2.34,0,0,1-.09.33c0,.21-.07.42-.12.64s-.09.42-.14.64,0,.4-.09.61-.09.42-.14.63l-.06.49c0,.1-.06.2-.08.3s-.06.37-.1.55-.11.43-.15.65-.07.46-.1.69-.1.41-.14.62,0,.32-.08.48l-.16.85c0,.15-.08.3-.11.44s-.11.59-.17.87l.06-.28c-.09.39-.15.78-.23,1.18s-.13.54-.2.82-.12.6-.17.9c-.11.46-.27.91-.38,1.37s-.15,1-.23,1.44c-.06.25-.12.49-.19.74a4.23,4.23,0,0,0-.13.71,1.24,1.24,0,0,1,0,.18c0,.1-.07.2-.1.31s-.07.51-.12.76a1.09,1.09,0,0,1,0,.17c-.05.16-.08.3-.11.44s-.09.35-.13.52a6.71,6.71,0,0,0-.13.76c0,.13,0,.26-.05.39A1.11,1.11,0,0,0,191,92.89a1.19,1.19,0,0,0,1.19-1l0-.26a.13.13,0,0,1,0-.06v0a2.88,2.88,0,0,0,.05-.33c0-.08,0-.16.05-.23a2.33,2.33,0,0,0,.08-.36.64.64,0,0,1,0-.07h0a2.74,2.74,0,0,0,.15-.51,6,6,0,0,0,.11-.7,2.07,2.07,0,0,0,.1-.33,6.46,6.46,0,0,0,.11-.75c.07-.25.13-.52.2-.77s.12-.6.16-.89a4.81,4.81,0,0,1,.07-.53c.06-.29.15-.58.24-.87a7.89,7.89,0,0,0,.28-1.28l.18-.71c.09-.38.15-.77.23-1.17s.1-.57.16-.85.08-.31.11-.46.09-.45.12-.66c.09-.37.14-.71.21-1.08s.12-.52.17-.78,0-.35.07-.53.15-.61.19-.91.11-.43.16-.65,0-.36.07-.53.1-.46.14-.7a3.7,3.7,0,0,0,.07-.48,9.37,9.37,0,0,0,.19-.92c.06-.24.12-.48.17-.73s0-.41.08-.61.09-.44.14-.66a2.6,2.6,0,0,0,.05-.39,7.33,7.33,0,0,0,.2-.93c.05-.23.12-.46.16-.7,0,.1,0,.2-.05.3a5.18,5.18,0,0,1,.17-.56c0-.09.08-.18.11-.27s.05-.21.08-.31a2,2,0,0,1,.1-.26c0-.11,0-.21.07-.31a2.14,2.14,0,0,0,.1-.22,1.55,1.55,0,0,0,.07-.23.59.59,0,0,1,0-.08,4,4,0,0,1,.27-.4l0,0,.43-.49a2,2,0,0,1-.15.18l.27-.26a3.48,3.48,0,0,0,.38-.23l.23-.18.23-.11c.25-.07.51-.08.76-.15a1.21,1.21,0,0,0,.62-.39h0l.07-.08a1.13,1.13,0,0,0-.3-1.57Z"/><path class="cls-1" d="M209,65.37h0l.06,0Zm1.91-1.21c-.06-.09-.14-.18-.2-.26a2.14,2.14,0,0,0-.72-.52h0l0,0a2.43,2.43,0,0,0-.38-.13l-.17-.05h-.07l-.12,0-.08,0a2,2,0,0,0-.41-.1,4.23,4.23,0,0,0-.5,0,7.84,7.84,0,0,0-.84,0l-.47,0c-.26,0-.52,0-.78,0s-.65,0-1,0h-1.81a14.52,14.52,0,0,0-1.62.09,12.09,12.09,0,0,0-1.82.26l-.2,0a5.67,5.67,0,0,0-.67.2,3.92,3.92,0,0,0-.55.18,1,1,0,0,0-.35.24,1.16,1.16,0,0,0-.25,1.23,1.13,1.13,0,0,0,1.48.59l.37-.13.33-.1.38-.1h0c.23,0,.48-.06.71-.1l.8-.09c.47,0,.94-.07,1.42-.08h1.1l.8,0c.43,0,.84,0,1.27,0l.54,0c.25,0,.51,0,.76,0s.29,0,.43,0l.21,0,.07,0,.31.08.1,0,.06,0s0,0,0,0a2.12,2.12,0,0,1,0,.24c0,.15,0,.3,0,.44a.15.15,0,0,0,0,.07,1.11,1.11,0,0,0,1.9,1.13,1.82,1.82,0,0,0,.15-.23,1.36,1.36,0,0,0,.18-.57c0-.1,0-.2.05-.3a7.08,7.08,0,0,0,0-.92A2,2,0,0,0,210.93,64.16Z"/><path class="cls-1" d="M211.16,66.34h0v-.13A.3.3,0,0,1,211.16,66.34ZM209,66a0,0,0,0,1,0,0h0Zm0-.2v0a.7.7,0,0,1,.05-.18A1.31,1.31,0,0,0,209,65.82Zm2.21.06a2.8,2.8,0,0,1-.06-.28.37.37,0,0,1,0-.09s0,.1,0,.15a2.49,2.49,0,0,0-.16-.55,1.25,1.25,0,0,0-.07-.23,1.78,1.78,0,0,0-.28-.61,4.07,4.07,0,0,0-1.2-1,.94.94,0,0,0-.47-.12,1.43,1.43,0,0,0-.37.06,1.12,1.12,0,0,0-.72,1.42,1,1,0,0,0,.43.55.91.91,0,0,0,.13.1l.17.1.17.13a.58.58,0,0,0,.05.14A1.89,1.89,0,0,0,209,66l-.06-.09a.44.44,0,0,1,.06.16v.05l0,.28c0,.19-.07.4-.1.6s-.08.54-.12.81c-.09.43-.15.86-.2,1.28s-.12.72-.17,1.08-.1.75-.17,1.12c-.12.7-.3,1.37-.48,2,0,.2-.1.38-.13.58s0,.35-.08.52a6.6,6.6,0,0,1-.13.73c0,.25-.06.51-.11.76-.14.84-.41,1.65-.54,2.48s-.26,1.55-.37,2.32-.28,1.54-.42,2.32-.3,1.54-.48,2.3-.38,1.65-.58,2.47-.45,1.66-.65,2.49c-.12.43-.18.88-.32,1.3,0,.09-.06.18-.08.26a3.87,3.87,0,0,0-.12.61c0,.18-.05.36-.08.54s-.06.37-.1.55a3.64,3.64,0,0,0-.09.73c0-.09,0-.19,0-.28a4.78,4.78,0,0,0,0,.66,5.16,5.16,0,0,0,.1.67,2.29,2.29,0,0,0,.56,1,4,4,0,0,0,.46.53,2.24,2.24,0,0,0,.73.39l.45.15h0l-.15,0,.41.13.15.06h0l.12,0,.09,0h0l.1,0,.12,0,.21,0h0s0,0,.05,0h0l.2,0h.12a.29.29,0,0,1,.14,0l-.07,0,.31.07h.18a1,1,0,0,0,.31,0h0a1.06,1.06,0,0,0,.58-.09.88.88,0,0,0,.2-.09,1,1,0,0,0,.49-.72,1.15,1.15,0,0,0-.15-.83,1.11,1.11,0,0,0-.73-.49,1,1,0,0,0-.29,0h-.07a.4.4,0,0,0-.19,0l-.09,0h-.06a2.65,2.65,0,0,0-.3-.06h-.06l-.09,0-.15,0-.1,0-.09,0s0,0,0,0a.11.11,0,0,0-.07,0s0,0,0,0l-.13-.06a4.26,4.26,0,0,0-.47-.15h0l-.25-.08h0l-.21-.1,0,0a1.3,1.3,0,0,1-.15-.2.46.46,0,0,1-.07-.07l.07.06a.38.38,0,0,1-.08-.11l0-.07c0-.07,0-.14,0-.19s0-.07,0-.1c0-.33.12-.64.17-1a9.7,9.7,0,0,1,.18-1.1l.06-.2a5.12,5.12,0,0,0,.15-.56c.05-.2.09-.41.14-.62.09-.42.23-.85.33-1.27.22-.8.43-1.61.62-2.42.09-.43.18-.84.28-1.27s.22-.87.31-1.31c.13-.73.3-1.44.41-2.17.07-.39.16-.79.21-1.18s.1-.72.16-1.08c.17-.78.23-1.57.43-2.35.11-.44.22-.87.3-1.31a4.51,4.51,0,0,0,.12-.72c0-.25.1-.5.15-.75.06-.4.11-.79.2-1.18s.13-.68.23-1a14.46,14.46,0,0,0,.42-2.16c.05-.35.12-.7.17-1.06s.1-.79.18-1.19l.15-1c0-.16.05-.32.08-.49s0-.29,0-.45h0s0-.07,0-.11v.09a1.24,1.24,0,0,0,0-.18v-.06h0a.14.14,0,0,0,0-.07c0-.06,0-.14,0-.31A.25.25,0,0,0,211.21,65.88Z"/><path class="cls-1" d="M234.93,94.59v0c-.16.74-.33,1.49-.5,2.22h-.37l-.44,0h-.68c-.24,0-.47,0-.71,0s-.71,0-1.06,0-.74,0-1.11,0-.85,0-1.28,0l-1.22,0H226.2c-.74,0-1.48.09-2.22.14-.37,0-.74.08-1.1.1s-.73,0-1.09,0c-.74,0-1.47.08-2.22.09l-1.23,0c-.4,0-.8.07-1.2.11-.76.07-1.51,0-2.26.08l-1.19.09c-.16,0-.31,0-.46,0a2.56,2.56,0,0,0-.62,0l-.29,0c-.81.1-1.63.1-2.43.17h-.53c-.23,0-.45,0-.66,0h-.78c-.11,0-.21,0-.32,0a1.67,1.67,0,0,1-.39-.06h-.59a1.21,1.21,0,0,1-.38-.12l-.08,0h0a1.12,1.12,0,0,1,.59-2.06H207s0,0,0,0a0,0,0,0,1,0,0,1.08,1.08,0,0,1,.18,0,2.4,2.4,0,0,1,.46,0l.06,0h.44c.24,0,.49,0,.73,0s.76,0,1.13,0c.75-.06,1.52-.06,2.26-.15a3.93,3.93,0,0,1,.6-.07,5.12,5.12,0,0,0,.56,0,4,4,0,0,0,.6,0c.2,0,.4,0,.6,0,.73-.09,1.47,0,2.21-.08.42,0,.82-.1,1.24-.12s.81,0,1.22,0c.74,0,1.49,0,2.23-.07l1.09,0c.36,0,.73-.08,1.1-.1.75,0,1.48-.14,2.23-.16.44,0,.89,0,1.32,0s.82,0,1.22,0,.88,0,1.32,0a5.19,5.19,0,0,1,.56,0l.53,0c.4,0,.82,0,1.22,0l1.16,0h0c.18,0,.34,0,.52,0h.07l.27,0a1,1,0,0,0,.25,0Z"/><path class="cls-1" d="M235.26,96.84h-.19a.82.82,0,0,1,.22,0Zm2.13-1.93-.08-.06a1,1,0,0,0-.68-.17h-.47l.2,0h-.49l.15,0a2.29,2.29,0,0,1-.37,0h-.12l-.4,0h-.57l.17,0-.29,0h0l-.25,0-.27,0h-.7a1.13,1.13,0,0,0-.8.31,1.11,1.11,0,0,0-.35.77,1.14,1.14,0,0,0,.89,1.15h1l.09,0,.26,0a1.42,1.42,0,0,0,.29,0l.35,0h.3l0,0h.87a1,1,0,0,0,.17,0h.17a1.15,1.15,0,0,0,1.18-.51.94.94,0,0,0,.15-.66A1.1,1.1,0,0,0,237.39,94.91Zm-2-.29.13,0h-.13Zm-.56,2.24.08,0a.3.3,0,0,0-.14,0Z"/><path class="cls-1" d="M232.82,110.63h0l.11-.09Zm3.42-11s0,0,0,0v-.06S236.24,99.62,236.24,99.65Zm2.42-3.16a2,2,0,0,0-.14-.57,2.23,2.23,0,0,0-.29-.44,1.8,1.8,0,0,0-.69-.5h0l-.12-.06-.33-.08.11,0-.34-.08a1.15,1.15,0,0,0-.31,0l-.21,0a1.09,1.09,0,0,0-.88.77,1.15,1.15,0,0,0,.67,1.37l.05,0h0l.27.06,0,.4c0,.26,0,.52,0,.8,0,.44-.08.91-.14,1.37h0s0,.06,0,.09,0,.06,0,.08h0a0,0,0,0,1,0,0c-.05.25-.08.5-.11.75s-.09.58-.13.87-.13.52-.18.78-.11.54-.15.8-.08.39-.11.59c0-.1,0-.19,0-.28a3.92,3.92,0,0,1-.15.66,5.25,5.25,0,0,0-.13.69s0,0,0,0v0s0,0,0,0-.07.24-.1.37l-.09.31c-.06.25-.13.49-.19.74a10.9,10.9,0,0,1-.4,1.46c-.07.19-.15.37-.23.55a.67.67,0,0,0-.06.12h0l-.07.1-.06.07-.12.13a.12.12,0,0,0-.08,0h-.1l-.16,0h0l-.28,0a1,1,0,0,0-.18-.06l-.45,0h0a1.56,1.56,0,0,0-.53,0l-.16,0a1.11,1.11,0,0,0-.48.31,1.07,1.07,0,0,0-.34.75,1.09,1.09,0,0,0,.31.8,1.12,1.12,0,0,0,.77.36.85.85,0,0,0,.32,0h.12l.46.07h0a2.28,2.28,0,0,0,.68,0h0a.82.82,0,0,0,.31-.07h.17a1.51,1.51,0,0,0,1-.37,4.68,4.68,0,0,0,.43-.46,3.78,3.78,0,0,0,.44-.61,6.18,6.18,0,0,0,.28-.64,5.64,5.64,0,0,0,.33-.84c.08-.3.17-.62.24-.94.13-.6.33-1.17.44-1.78a0,0,0,0,0,0,0h0a.07.07,0,0,1,0-.05v0s0,0,0-.06a.45.45,0,0,1,0-.11h0a1.54,1.54,0,0,1,.09-.37c0-.21.09-.43.14-.64s.05-.33.08-.5c.08-.42.19-.84.28-1.25s.14-.92.21-1.38c0-.11,0-.21.05-.31s0-.09,0-.14l.07-.42c.07-.54.13-1.07.17-1.62,0-.26,0-.52.05-.78A5.24,5.24,0,0,0,238.66,96.49Z"/><path class="cls-1" d="M238,101.86v0a0,0,0,0,1,0,0Zm.46-3.86v-.26a1.45,1.45,0,0,0,0-.36v-.07h0s0,0,0-.07v-.06a.15.15,0,0,1,0-.07v.05a2.84,2.84,0,0,0-.61-1.41,1.14,1.14,0,0,0-.15-.17,3.24,3.24,0,0,0-1.32-.81h-.05a.68.68,0,0,0-.27,0,1.17,1.17,0,0,0-1.08.81,1.16,1.16,0,0,0,.09.84,1.09,1.09,0,0,0,.62.54l.05,0,.12,0,.16.1.11.11.09.18s0,.09,0,.15c0,.26,0,.52,0,.8a2.83,2.83,0,0,1,0-.29v.12a.31.31,0,0,1,0,.1,2.25,2.25,0,0,0,0,.26v.08h0v0s0,.06,0,.1h0a3.11,3.11,0,0,1,0,.32c0,.12,0,.23,0,.34s0,.25-.05.38l0,.1a5,5,0,0,0-.11.58c0,.15,0,.33,0,.49v0s0,0,0,.06h0l0,.35s0,0,0,0v0s0,0,0,0v0s0,0,0,0,0,.09,0,.13v0c0,.07,0,.12,0,.19a.06.06,0,0,0,0,0c-.05.29-.14.56-.21.84a3.05,3.05,0,0,1-.14.54c0,.14-.06.28-.09.44s-.13.53-.17.82h0a.59.59,0,0,0,0,.14.8.8,0,0,0,0,.37,1.39,1.39,0,0,0,.25.43,1.19,1.19,0,0,0,.79.36,1.11,1.11,0,0,0,1.12-.89,0,0,0,0,1,0,0,0,0,0,0,1,0,0s0-.05,0-.07c.06-.31.14-.61.19-.92,0,.09,0,.19,0,.29,0-.31.16-.6.23-.91s.15-.63.21-.95h0s0,0,0,0v0a0,0,0,0,1,0,0,.89.89,0,0,1,0-.15c0-.07,0-.13,0-.2a0,0,0,0,1,0,0v0c0-.15.06-.28.07-.42v-.14a.07.07,0,0,0,0,0h0c0-.21,0-.43,0-.65s.05-.15.07-.23a2.2,2.2,0,0,0,.05-.37,2.32,2.32,0,0,0,0-.24c0-.09,0-.17.06-.25s0-.08,0-.12v0l0-.31h0s0,0,0,0v0s0,0,0-.07a2.3,2.3,0,0,0,0-.52.25.25,0,0,1,0,.08s0-.12,0-.18A1.22,1.22,0,0,0,238.48,98Z"/><path class="cls-1" d="M233.08,108.79h0Zm2.65-.45a1.13,1.13,0,0,0-1.52-.07h0l-.07,0-.24.21-.12.08,0,0a4.57,4.57,0,0,1-.61.16h-.08a3.88,3.88,0,0,1-.68,0c-.19,0-.4,0-.61,0h-1.25c-.42,0-.82,0-1.23,0s-.92,0-1.39.08c-1.7.15-3.4.13-5.1.23s-3.16,0-4.74.12c-.41,0-.81.05-1.23.06s-.86.07-1.29.1-.87,0-1.3,0-.9.06-1.35.07a11.11,11.11,0,0,0-1.16.07c-.37,0-.74,0-1.11,0a23.8,23.8,0,0,1-2.67,0c-.24,0-.48,0-.73,0s-.51,0-.76,0a14.71,14.71,0,0,0-1.48.1c-.37,0-.73,0-1.11,0a9,9,0,0,0-1.45.2,6.76,6.76,0,0,0-1.28.38,1.93,1.93,0,0,0-.65.49s-.05,0-.07.07c-.16.17-.3.33-.43.49a2.65,2.65,0,0,0-.46.65c-.14.32-.2.64-.32,1l0,0a.67.67,0,0,0-.09.26v0a.65.65,0,0,0-.05.27,1.13,1.13,0,0,0,1.12,1.13,1.22,1.22,0,0,0,.56-.14,1.55,1.55,0,0,0,.24-.19.77.77,0,0,0,.22-.32.55.55,0,0,0,.09-.19s0-.1,0-.15a.87.87,0,0,1-.07.17c.11-.27.19-.55.29-.83a1.06,1.06,0,0,1,.1-.17.28.28,0,0,1,.09-.1c.06-.08.14-.16.2-.23a1.26,1.26,0,0,0,.2-.2l.09,0a2.79,2.79,0,0,1,.57-.14c.25-.07.51-.11.76-.16.58,0,1.16,0,1.73-.11a.42.42,0,0,0-.12,0c.42-.06.85-.07,1.27-.09a12.16,12.16,0,0,1,1.35,0c.41,0,.83,0,1.25,0l1.38,0c1.65,0,3.3-.19,5-.21.42,0,.85-.08,1.28-.1l.65,0c.21,0,.41,0,.6,0a23.06,23.06,0,0,1,2.35-.07c.8,0,1.61,0,2.4-.06s1.61-.07,2.42-.09,1.77-.06,2.65-.13,1.76-.09,2.63-.12h1.37c.53,0,1.06,0,1.58-.08h0a2.7,2.7,0,0,0,.69-.12l.35-.11.08,0a2.73,2.73,0,0,0,.62-.3,4.84,4.84,0,0,0,.65-.53A1.14,1.14,0,0,0,235.73,108.34Z"/><path class="cls-1" d="M200.13,119.46h0s0,0,0,0A.13.13,0,0,1,200.13,119.46Zm1.78-7.73a1.14,1.14,0,0,0-.49-.69,1.09,1.09,0,0,0-.61-.18,1,1,0,0,0-.24,0l-.08,0a1,1,0,0,0-.62.46,8.19,8.19,0,0,0-.53,1.07,4.87,4.87,0,0,0-.23.83.22.22,0,0,0,0,.08v0c-.08.39-.19.8-.29,1.18,0,.21-.11.42-.16.61s-.12.61-.18.92a2.4,2.4,0,0,1,0,.24l0,.21h0a.61.61,0,0,0,0,.13.59.59,0,0,0,0,.13c0,.18-.05.35-.09.52v0c-.06.36-.13.69-.18,1,0,.14,0,.26-.07.39s0,.06,0,.09a.43.43,0,0,1,0,0s0,0,0,.07,0,0,0,.07,0,0,0,0h0c0,.11-.05.21-.06.32s0,.13,0,.2-.05.3-.09.46,0,.16,0,.25-.07.32-.1.5-.1.47-.13.71-.06.27-.08.41c0-.09,0-.19,0-.29-.07.34-.13.68-.21,1s-.18.79-.24,1.19l0,.19c0,.21-.08.4-.11.61a1.55,1.55,0,0,1,0,.21c0,.28-.1.56-.16.83s-.12.74-.19,1.12a.15.15,0,0,1,0,.07s0,.07,0,.11a.17.17,0,0,0,0,.08s0,0,0,0a5.16,5.16,0,0,1-.09.52c-.06.32-.11.65-.16,1l0,.14s0,.06,0,.09a.7.7,0,0,1,0,.14l-.13.65c-.08.43-.19.85-.27,1.28,0,.26-.1.52-.14.77s-.09.51-.13.75-.05.27-.07.4c-.13.68-.26,1.35-.44,2a14.2,14.2,0,0,0-.34,1.7c-.08.37-.19.71-.28,1.08s-.17.8-.28,1.2c-.22.79-.42,1.59-.65,2.39a10.64,10.64,0,0,1-.5,1.4.8.8,0,0,1-.09.14,1.93,1.93,0,0,1-.3.26l-.06.06-.28.14-.37.11h-.07a2.79,2.79,0,0,1-.4.07l-.3.05h-.12a1.05,1.05,0,0,0-.5.21l-.07.06a1.15,1.15,0,0,0-.37.78,1.12,1.12,0,0,0,.3.8,1.11,1.11,0,0,0,.78.37l.52-.07a4.55,4.55,0,0,0,.74-.11h.05a6.59,6.59,0,0,0,.88-.32,3,3,0,0,0,.81-.52,2.16,2.16,0,0,0,.31-.29,2.71,2.71,0,0,0,.55-.78,7.28,7.28,0,0,0,.5-1.27c.1-.34.19-.68.29-1s.25-.81.34-1.23.21-.83.31-1.25.17-.76.28-1.13c0-.18.09-.37.14-.55s.07-.53.12-.79c.09-.46.22-.91.33-1.37.16-.65.28-1.32.39-2a.2.2,0,0,0,0-.07v0a.43.43,0,0,1,0-.11c0-.19.06-.37.09-.56s0-.23.07-.34.06-.38.1-.56c.08-.41.18-.81.27-1.23s.12-.66.18-1a1,1,0,0,1,0-.23.15.15,0,0,1,0-.06h0c0-.2.06-.4.1-.61s.07-.42.1-.63c.07-.36.11-.72.18-1.08s.09-.52.13-.77c0,.1,0,.2,0,.3,0-.26.09-.53.15-.79a2.17,2.17,0,0,1,0-.25v0a.24.24,0,0,1,0-.09c0-.2.06-.41.09-.6a.5.5,0,0,1,0-.13c0-.3.13-.58.19-.88s.14-.64.2-1a2.93,2.93,0,0,1,.05-.29c0-.06,0-.1,0-.16s.09-.42.14-.63,0-.21.05-.32.06-.26.08-.39l.06-.32.07-.39c0-.09,0-.18.05-.27a.43.43,0,0,0,0,0v0a.13.13,0,0,0,0-.06s0,0,0,0v-.06c0-.17.06-.36.09-.55l.06-.34c0-.18.06-.34.1-.52v0a0,0,0,0,0,0,0s0-.06,0-.09,0,0,0,0a5,5,0,0,1,.09-.56h0s0-.07,0-.1,0-.11,0-.18,0-.2.07-.31l0-.2a.88.88,0,0,1,0-.16c.08-.37.2-.75.29-1.13s.13-.61.19-.92a3,3,0,0,0,.08-.32,4.3,4.3,0,0,1,.23-.75c.09-.16.18-.32.27-.5A1.19,1.19,0,0,0,201.91,111.73Z"/><path class="cls-1" d="M193.84,143.49a1.14,1.14,0,0,0-1.35-.47.77.77,0,0,0-.19.08l-.15.08c-.13,0-.25.09-.37.15h-.05l-.16.06-.2.08a1.21,1.21,0,0,0,.2-.09,3.32,3.32,0,0,1-.83.25h-.12a1.81,1.81,0,0,1-.23,0l-1,.07-1.11.11a22.88,22.88,0,0,1-2.34.09c-.51,0-1,0-1.56-.06-.31,0-.62,0-.94,0a7.91,7.91,0,0,1-.84,0l-.44-.06-.15,0-.12,0h-.07l0,0c0-.08-.1-.17-.14-.24s0-.06,0-.09v-.07a1.13,1.13,0,0,0-.81-1.33,1,1,0,0,0-.29,0,1.17,1.17,0,0,0-1.09.84.37.37,0,0,0,0,.12.13.13,0,0,0,0,.06v0a2.57,2.57,0,0,0,0,1,3.28,3.28,0,0,0,.47,1q.12.17.24.3a3.71,3.71,0,0,0,.55.48,1.79,1.79,0,0,0,.24.12,3.14,3.14,0,0,0,.74.15l.18,0,.44,0a5.05,5.05,0,0,0,.68.08h.69l1.16.05a20.28,20.28,0,0,0,2.34,0c.57,0,1.15-.06,1.73-.12s1.44-.09,2.15-.2a3.76,3.76,0,0,0,.67-.12l.6-.21h.07l.07,0,.2-.08a9,9,0,0,0,.85-.36A1.12,1.12,0,0,0,193.84,143.49Zm-2.13-.15-.11,0h0Z"/><path class="cls-1" d="M187.69,114a3.5,3.5,0,0,0-.14-1,1.73,1.73,0,0,0-.62-1,2.76,2.76,0,0,0-.49-.32,1.66,1.66,0,0,1-.33-.16l0,0-.07,0c-.14-.1-.26-.21-.41-.3a1.07,1.07,0,0,0-.48-.12,1.19,1.19,0,0,0-.81.34.89.89,0,0,0-.22.29,1.13,1.13,0,0,0,.28,1.35l.42.3.05,0,.11.08.05,0,.05,0a2.57,2.57,0,0,0,.33.18l0,0s0,0,0,0,0,.24,0,.36v.07a2.69,2.69,0,0,1,0,.4,1.31,1.31,0,0,1,0,.15v.1a.09.09,0,0,1,0,0v0c0,.09,0,.19,0,.29s-.08.38-.12.58,0,.36-.05.54a3.27,3.27,0,0,1-.1.45c0,.22-.1.44-.14.66s-.07.39-.11.59-.07.44-.11.66-.2.69-.31,1-.18.73-.26,1.09c-.15.77-.39,1.51-.59,2.26-.1.38-.19.74-.26,1.13s-.2.74-.29,1.12-.18.78-.26,1.17c0,.22-.07.43-.13.64s-.12.42-.18.63a5.41,5.41,0,0,0-.12.55c-.06.2-.11.4-.15.59s-.05.41-.08.6a5,5,0,0,1-.12.53c-.41,1.55-.76,3.13-1.11,4.7-.18.8-.39,1.61-.55,2.43-.08.38-.16.78-.26,1.16a5,5,0,0,0-.11.56,3.15,3.15,0,0,0-.11.55c0,.17-.07.33-.11.51a5.78,5.78,0,0,0-.08.6c-.05.36-.13.71-.18,1.07a9.67,9.67,0,0,0-.18,1.33.13.13,0,0,0,0,.06,3.19,3.19,0,0,0,.05.54c0,.17.07.36.12.53a2.19,2.19,0,0,0,.2.44.91.91,0,0,0,.07.14l0,.07a2.59,2.59,0,0,0,.17.38,1.08,1.08,0,0,1,.11.18.35.35,0,0,1,.08.13,1.11,1.11,0,0,0,.71.47,1.09,1.09,0,0,0,.85-.18,1.11,1.11,0,0,0,.47-.7,1.16,1.16,0,0,0-.17-.85l-.19-.32s0,0,0,0h0c-.08-.14-.13-.27-.2-.41,0,.07.07.15.11.21a1.79,1.79,0,0,1-.13-.32c0-.14,0-.28,0-.42s.05-.3.08-.47,0-.35.08-.52a9.91,9.91,0,0,0,.18-1.09c0-.36.12-.71.18-1.07s.16-.74.24-1.1c.21-.82.36-1.65.56-2.45.1-.4.18-.8.26-1.19s.19-.76.28-1.15.17-.83.27-1.24.16-.75.27-1.12.18-.76.29-1.14.12-.79.2-1.19.17-.76.29-1.13a9.21,9.21,0,0,0,.28-1.24c.15-.77.41-1.51.55-2.28.06-.38.18-.75.28-1.13s.2-.74.31-1.1c.05-.19.1-.4.15-.61l.12-.54c.08-.38.16-.75.27-1.11s.16-.5.23-.75a2.57,2.57,0,0,0,.08-.47c0-.16.07-.32.1-.48s0-.26.06-.41a3.48,3.48,0,0,0,.1-.44c.05-.17.08-.33.12-.49a3.78,3.78,0,0,0,.06-.47,5.42,5.42,0,0,1,.08-.54,5.11,5.11,0,0,0,.1-.95,4.53,4.53,0,0,0,.05-.53C187.72,114.25,187.69,114.11,187.69,114Z"/><path class="cls-1" d="M187.38,113l-.19-.25a0,0,0,0,0,0,0,1.36,1.36,0,0,0-.47-.51l-.16-.1a3.06,3.06,0,0,0-.64-.37,6.66,6.66,0,0,0-.67-.23,3.25,3.25,0,0,0-.92-.13h-.08a8.08,8.08,0,0,0-.85,0H183l-.63,0-.44,0a14.42,14.42,0,0,1-1.47,0c-.49,0-1,0-1.5,0s-.86,0-1.28.09l.28,0-.58,0c-.25,0-.5,0-.75.07-.57,0-1.14,0-1.72.08l-1.12.08h-.5l-.89.07c-.61,0-1.23.06-1.84.11h0l-.28,0c-.75.05-1.53.08-2.28.08-.45,0-.91,0-1.35,0s-.87,0-1.29,0c-.25,0-.5,0-.77,0a4.54,4.54,0,0,0-1,0h-1.18c-.46,0-.92,0-1.37.08h0c-.47,0-1,.06-1.42,0h-.67a4.79,4.79,0,0,0-.77.07h-.5c-.31,0-.61,0-.92.06h-.18a0,0,0,0,0,0,0h0l-.31,0a2.67,2.67,0,0,1-.49,0l-.07,0a1.19,1.19,0,0,0-.7,0l-.15,0a1.15,1.15,0,0,0-.55.67,1.13,1.13,0,0,0,.73,1.4,3.57,3.57,0,0,0,.86.12,6.65,6.65,0,0,0,.77-.06h.47l.3,0a5.43,5.43,0,0,1,.58,0c.24,0,.48,0,.72-.05h.64c.19,0,.38,0,.58,0,.49,0,1,0,1.48-.1s.76,0,1.14,0h.54a4.47,4.47,0,0,0,.63,0c.43,0,.84,0,1.27,0l1.25,0c.26,0,.52,0,.78,0a4.28,4.28,0,0,0,.62,0h1.26l.91-.05c.3,0,.58,0,.88,0,.65,0,1.31-.07,2-.13h.18l.71,0h.29l.29,0,1.05,0,1,0,1.08-.09c.31,0,.6,0,.91-.06l-.17,0c.42,0,.83,0,1.25-.08s.8,0,1.2,0a11.38,11.38,0,0,0,1.75-.06l-.3,0,.67-.06.56,0a6.13,6.13,0,0,0,.74,0,4.07,4.07,0,0,1,.7,0c.18,0,.37.11.55.17l.23.17.13.17s0,0,0,0a1.22,1.22,0,0,0,.64.52,1.16,1.16,0,0,0,1.41-.75A1.18,1.18,0,0,0,187.38,113Z"/><path class="cls-1" d="M157.28,113.42a1.17,1.17,0,0,0-.5-.71,1.28,1.28,0,0,0-.83-.15h-.1a4.52,4.52,0,0,1-.52,0,2.48,2.48,0,0,1-.27,0H155a1.27,1.27,0,0,0-.34,0h-.52c0-.18,0-.34.05-.51s0-.23,0-.35a.25.25,0,0,0,0-.08.43.43,0,0,0,0-.11c0-.12,0-.25.09-.37s0-.1,0-.15a.43.43,0,0,1,0-.11.77.77,0,0,1,0-.15.29.29,0,0,1,0-.09.61.61,0,0,0,0-.11,1.27,1.27,0,0,0,0-.2,1.17,1.17,0,0,0-.12-.48,1.15,1.15,0,0,0-1-.59,1,1,0,0,0-.51.12,1.1,1.1,0,0,0-.36.31h0s0,0,0,0a.78.78,0,0,0-.18.35c0,.11,0,.21-.06.32a1.21,1.21,0,0,1,0,.14v0c0,.13,0,.25-.08.37a.65.65,0,0,1,0,.19,6.17,6.17,0,0,0-.09.62v0c0,.19,0,.38-.05.57,0,0,0-.07,0-.1a3,3,0,0,0,0,.43,1.71,1.71,0,0,0,.18,1,1.83,1.83,0,0,0,.13.24,1.62,1.62,0,0,0,.26.34,1.5,1.5,0,0,0,.33.24l.18.09a2.18,2.18,0,0,0,.8.23h.75a1.82,1.82,0,0,0,.33,0c.17,0,.34,0,.5,0l.36,0c.25,0,.49,0,.75-.06a.47.47,0,0,0,.19-.06h0a1.18,1.18,0,0,0,.51-.45A1.14,1.14,0,0,0,157.28,113.42Z"/><path class="cls-1" d="M155.29,107.19a1,1,0,0,0-.14-.34,1.09,1.09,0,0,0-.36-.38,1.21,1.21,0,0,0-.6-.17l-.24,0a1.1,1.1,0,0,0-.71.51,5.89,5.89,0,0,0-.34,1h0l-.1.34c-.14.49-.27,1-.37,1.49a.43.43,0,0,1,0-.12.66.66,0,0,1,0,.15l-.13.49a7.09,7.09,0,0,0-.18.87,1.12,1.12,0,0,0,.31.82,1.11,1.11,0,0,0,.76.35,1.16,1.16,0,0,0,.82-.3.13.13,0,0,0,0-.05.27.27,0,0,0,.12-.14s0,0,0-.06a1.45,1.45,0,0,0,.17-.52.17.17,0,0,1,0-.07c0-.16.08-.31.12-.46s.11-.44.15-.68a1.85,1.85,0,0,1,0,.23c.09-.43.22-.85.34-1.27a7.17,7.17,0,0,1,.32-1.12.19.19,0,0,0-.05.1A1.19,1.19,0,0,0,155.29,107.19Z"/><path class="cls-1" d="M153,107.71a1.88,1.88,0,0,0-.39.65,2,2,0,0,1-.07.23c-.06.19-.08.39-.13.58-.11.39-.21.78-.29,1.17v0a7.19,7.19,0,0,1-.2.8,1.12,1.12,0,0,0,2.14.66c.09-.3.17-.6.23-.9s.17-.64.24-1a7.75,7.75,0,0,1,.21-.83,1.17,1.17,0,0,0,.15-.5,1.12,1.12,0,0,0-.31-.81,1.1,1.1,0,0,0-.76-.36h0a1.08,1.08,0,0,0-.77.3Zm1.7,1.43v0l0,0,0,0Z"/><path class="cls-1" d="M160.15,98l-1.49,0h-.31c-.37,0-.74,0-1.11,0a2.52,2.52,0,0,0-.55.08,3.51,3.51,0,0,0-1.24.65l-.38.35c-.12.12-.23.26-.34.39a1.72,1.72,0,0,0-.2.38h0l0,.1s0,0,0,0h0s0,0,0,0a5.38,5.38,0,0,0-.37,1.36l-.09.38-.09.69c0,.21-.1.42-.15.63s-.13.61-.19.92a.45.45,0,0,1,0-.16c-.13.64-.3,1.27-.46,1.89s-.33,1.3-.44,2c0,0,0,.06,0,.1,0,.24-.09.46-.12.7a0,0,0,0,0,0,0h0a.93.93,0,0,0-.05.24s0,.08,0,.11h0s0,.09,0,.13c0,.27-.12.54-.16.8a1,1,0,0,0-.06.23c0,.11,0,.21-.06.32a1.2,1.2,0,0,0-.08.27v0a0,0,0,0,0,0,0,.88.88,0,0,0,0,.16,1.16,1.16,0,0,1,0,.18l-.12.55v0a3.91,3.91,0,0,0-.06.68c0,.1,0,.21,0,.31s.07.45.1.67a1.11,1.11,0,0,0,2,.36,1.15,1.15,0,0,0,.14-.83c0-.09,0-.18,0-.28h0c0-.06,0-.1,0-.15a4.73,4.73,0,0,1,0-.53.5.5,0,0,0,0-.12,2.33,2.33,0,0,0,.08-.36c0-.09,0-.18.05-.27v0a3.49,3.49,0,0,1,.1-.38.29.29,0,0,1,0-.09.61.61,0,0,0,0-.11c0-.13.05-.25.07-.39s.06-.28.09-.42a1.91,1.91,0,0,0,0-.21,2,2,0,0,0,.06-.32l0-.25c0-.08,0-.16,0-.24s.06-.27.08-.4a.08.08,0,0,1,0,0,.89.89,0,0,1,0-.15,1.42,1.42,0,0,0,.06-.31c.05-.27.13-.52.18-.78a.88.88,0,0,1,.05-.15c0-.21.1-.44.16-.66.18-.63.33-1.27.45-1.93.09-.43.2-.84.29-1.28a2.54,2.54,0,0,0,.09-.54c0-.07,0-.15,0-.21s.07-.36.11-.55a4.74,4.74,0,0,1,.23-.84l.07-.11a4.26,4.26,0,0,1,.38-.35.87.87,0,0,1,.59-.19c.84,0,1.67,0,2.51,0h.19a1.15,1.15,0,0,0,1-1.06A1.14,1.14,0,0,0,160.15,98Z"/><path class="cls-1" d="M191.39,95.18a1.1,1.1,0,0,0-.92-.56h0a1.19,1.19,0,0,0-1.08.59c-.09.19-.11.3-.18.48s-.08.21-.11.32-.07.3-.11.45a.45.45,0,0,1,0,.11l0,.07a4,4,0,0,1-.36.35l-.47.23h0l-.12,0h0l-.23,0h0l-.61.07-.62,0h-.61c-.21,0-.42,0-.62,0-.42,0-.85,0-1.27,0-.22,0-.43,0-.64,0h-.65l-1.32,0-1.07,0c-.47,0-.92,0-1.39,0h-1.3c-.85,0-1.72,0-2.57.06s-1.89,0-2.83.06h-.36c-.7.06-1.39,0-2.08.07s-1.5,0-2.24.09h-.22L167,98c-.41,0-.82,0-1.23.06-.25,0-.5,0-.74,0a4.52,4.52,0,0,0-.52,0c-.41,0-.82,0-1.23,0s-.78,0-1.17,0h-.55l-.66,0-.07,0-.27,0c-.26,0-.52-.1-.79-.12a2.79,2.79,0,0,0-.76.06h-.34a1.11,1.11,0,0,0-.72,1.87,1.07,1.07,0,0,0,.77.37l.82-.08a3.73,3.73,0,0,1,.46,0l.25.06.18,0,.46.07a3.1,3.1,0,0,1,.42,0h.59c.39,0,.77,0,1.16,0s.81,0,1.23,0c.22,0,.45,0,.68,0h.56c.54,0,1.08,0,1.61-.09.12,0,.25,0,.37,0,.74,0,1.5,0,2.25-.08h1.14c.49,0,1-.06,1.44-.1h-.05c.4,0,.79,0,1.18,0h1.29c.84,0,1.69-.08,2.55-.07h1.41l.76,0a7.49,7.49,0,0,0,.82,0h.13c.35,0,.7,0,1.05,0s.88,0,1.33,0l1.29,0c.43,0,.85,0,1.27-.06h.6a5.7,5.7,0,0,0,.82,0,9.85,9.85,0,0,0,1.08-.1l.14,0h0l.3,0a.13.13,0,0,0,.08,0,1.39,1.39,0,0,0,.38-.12l.24-.08h0c.17-.07.35-.15.52-.24a4.1,4.1,0,0,0,.71-.55,6.31,6.31,0,0,0,.54-.62,2.3,2.3,0,0,0,.38-1,3.4,3.4,0,0,1,.12-.34s0,0,0-.06a1.15,1.15,0,0,0,.21-.61A1.16,1.16,0,0,0,191.39,95.18Z"/><path class="cls-1" d="M191.36,89.83h-.16a1.14,1.14,0,0,0-1.13.94,1.64,1.64,0,0,1,0,.25v0s0,0,0,0a1.55,1.55,0,0,0-.05.23,3.23,3.23,0,0,0-.11.47c-.07.23-.12.46-.17.67s-.1.47-.14.7a3.83,3.83,0,0,1-.1.59v0a.25.25,0,0,0,0,.07c-.1.31-.16.63-.25,1s-.13.43-.2.64-.17.5-.25.75l-.06.2s0,0,0,0h0s0,0,0,0l0,.12a1.67,1.67,0,0,0-.12.16l-.33.35a.25.25,0,0,1-.1.08h0a1.55,1.55,0,0,0-.29.14h0v0h0a.16.16,0,0,0-.09,0,1.13,1.13,0,0,0-.6,1.44,1.12,1.12,0,0,0,1.06.7h0l.3,0a.13.13,0,0,0,.08,0,.43.43,0,0,0,.12,0,1.67,1.67,0,0,0,.23-.12l.16-.07a2.09,2.09,0,0,0,.48-.27l.13-.1a1.33,1.33,0,0,0,.29-.29l.17-.19a3.9,3.9,0,0,0,.42-.48,2.72,2.72,0,0,0,.43-1l.16-.47a6.36,6.36,0,0,0,.19-.62l.21-.64s0,0,0,0a6.17,6.17,0,0,1,.16-.65v0s0,0,0,0h0a2.62,2.62,0,0,0,.13-.48c0-.11,0-.23.05-.34a5.58,5.58,0,0,1,.13-.69c.05-.21.1-.44.15-.67s.1-.45.16-.67h0s0,0,0-.07v0a2.74,2.74,0,0,0,.09-.39,1,1,0,0,0,0-.17A1.14,1.14,0,0,0,191.36,89.83Z"/><path class="cls-1" d="M236.27,98.29a2.83,2.83,0,0,1,0-.29v.12a.31.31,0,0,1,0,.1,2.25,2.25,0,0,0,0,.26v.08h0v0s0,0,0,0a.17.17,0,0,1,0,.07h0a3.11,3.11,0,0,1,0,.32c0,.12,0,.23,0,.34s0,.25-.05.38l0,.1a5,5,0,0,0-.11.58c0,.15,0,.33,0,.49v0s0,0,0,0v0l0,.35s0,0,0,0v0s0,0,0,0v0s0,0,0,0a.69.69,0,0,0,0,.13v0c0,.07,0,.12,0,.19a.06.06,0,0,0,0,0c-.05.29-.14.56-.21.84a3.05,3.05,0,0,1-.14.54c0,.14-.06.28-.09.44s-.13.53-.17.82h0a.59.59,0,0,0,0,.14.8.8,0,0,0,0,.37l-.09.31c-.06.25-.13.49-.19.74a10.9,10.9,0,0,1-.4,1.46c-.07.19-.15.37-.23.55a.67.67,0,0,0-.06.12h0l-.07,0-.24.21-.12.08-.16,0h0l-.28,0a1,1,0,0,0-.18-.06l-.45,0h0a1.56,1.56,0,0,0-.53,0l-.16,0a1.11,1.11,0,0,0-.48.31h-1c-.42,0-.82,0-1.23,0s-.92,0-1.39.08c-1.7.15-3.4.13-5.1.23s-3.16,0-4.74.12c-.41,0-.81.05-1.23.06s-.86.07-1.29.1-.87,0-1.3,0-.9.06-1.35.07a11.11,11.11,0,0,0-1.16.07c-.37,0-.74,0-1.11,0a23.8,23.8,0,0,1-2.67,0c-.24,0-.48,0-.73,0s-.51,0-.76,0a14.71,14.71,0,0,0-1.48.1c-.37,0-.73,0-1.11,0a9,9,0,0,0-1.45.2,6.76,6.76,0,0,0-1.28.38,1.93,1.93,0,0,0-.65.49,1,1,0,0,0-.62.46,8.19,8.19,0,0,0-.53,1.07,4.87,4.87,0,0,0-.23.83.22.22,0,0,0,0,.08v0c-.08.39-.19.8-.29,1.18,0,.21-.11.42-.16.61s-.12.61-.18.92a2.4,2.4,0,0,1,0,.24l0,.21h0a.61.61,0,0,0,0,.13.59.59,0,0,0,0,.13c0,.18-.05.35-.09.52v0c-.06.36-.13.69-.18,1,0,.14,0,.26-.07.39s0,.06,0,.09a.43.43,0,0,1,0,0s0,0,0,.07,0,0,0,.07,0,0,0,0h0c0,.11-.05.21-.06.32s0,.13,0,.2-.05.3-.09.46,0,.16,0,.25-.07.32-.1.5-.1.47-.13.71-.06.27-.08.41c0-.09,0-.19,0-.29-.07.34-.13.68-.21,1s-.18.79-.24,1.19l0,.19c0,.21-.08.4-.11.61a1.55,1.55,0,0,1,0,.21c0,.28-.1.56-.16.83s-.12.74-.19,1.12a.15.15,0,0,1,0,.07s0,.07,0,.11a.17.17,0,0,0,0,.08s0,0,0,0a5.16,5.16,0,0,1-.09.52c-.06.32-.11.65-.16,1l0,.14s0,.06,0,.09a.7.7,0,0,1,0,.14l-.13.65c-.08.43-.19.85-.27,1.28,0,.26-.1.52-.14.77s-.09.51-.13.75-.05.27-.07.4c-.13.68-.26,1.35-.44,2a14.2,14.2,0,0,0-.34,1.7c-.08.37-.19.71-.28,1.08s-.17.8-.28,1.2c-.22.79-.42,1.59-.65,2.39a10.64,10.64,0,0,1-.5,1.4.8.8,0,0,1-.09.14,1.93,1.93,0,0,1-.3.26.77.77,0,0,0-.19.08l-.15.08c-.13,0-.25.09-.37.15h-.07a2.79,2.79,0,0,1-.4.07l-.3.05h-.12a1.05,1.05,0,0,0-.5.21l-1,.07-1.11.11a22.88,22.88,0,0,1-2.34.09c-.51,0-1,0-1.56-.06-.31,0-.62,0-.94,0a7.91,7.91,0,0,1-.84,0l-.44-.06-.15,0-.12,0c-.08-.14-.13-.27-.2-.41,0,.07.07.15.11.21a1.79,1.79,0,0,1-.13-.32c0-.14,0-.28,0-.42s.05-.3.08-.47,0-.35.08-.52a9.91,9.91,0,0,0,.18-1.09c0-.36.12-.71.18-1.07s.16-.74.24-1.1c.21-.82.36-1.65.56-2.45.1-.4.18-.8.26-1.19s.19-.76.28-1.15.17-.83.27-1.24.16-.75.27-1.12.18-.76.29-1.14.12-.79.2-1.19.17-.76.29-1.13a9.21,9.21,0,0,0,.28-1.24c.15-.77.41-1.51.55-2.28.06-.38.18-.75.28-1.13s.2-.74.31-1.1c.05-.19.1-.4.15-.61l.12-.54c.08-.38.16-.75.27-1.11s.16-.5.23-.75a2.57,2.57,0,0,0,.08-.47c0-.16.07-.32.1-.48s0-.26.06-.41a3.48,3.48,0,0,0,.1-.44c.05-.17.08-.33.12-.49a3.78,3.78,0,0,0,.06-.47,5.42,5.42,0,0,1,.08-.54,5.11,5.11,0,0,0,.1-.95,4.53,4.53,0,0,0,.05-.53c0-.15,0-.29,0-.44a3.5,3.5,0,0,0-.14-1,1.73,1.73,0,0,0-.62-1,2.76,2.76,0,0,0-.49-.32,1.66,1.66,0,0,1-.33-.16l0,0-.07,0c-.14-.1-.26-.21-.41-.3a1.07,1.07,0,0,0-.48-.12,1.19,1.19,0,0,0-.81.34h-.08a8.08,8.08,0,0,0-.85,0H183l-.63,0-.44,0a14.42,14.42,0,0,1-1.47,0c-.49,0-1,0-1.5,0s-.86,0-1.28.09l.28,0-.58,0c-.25,0-.5,0-.75.07-.57,0-1.14,0-1.72.08l-1.12.08h-.5l-.89.07c-.61,0-1.23.06-1.84.11h0l-.28,0c-.75.05-1.53.08-2.28.08-.45,0-.91,0-1.35,0s-.87,0-1.29,0c-.25,0-.5,0-.77,0a4.54,4.54,0,0,0-1,0h-1.18c-.46,0-.92,0-1.37.08h0c-.47,0-1,.06-1.42,0h-.67a4.79,4.79,0,0,0-.77.07h-.5c-.31,0-.61,0-.92.06h-.16s0,0,0,0h0l-.31,0a2.67,2.67,0,0,1-.49,0l-.07,0a1.19,1.19,0,0,0-.7,0,1.27,1.27,0,0,0-.34,0h-.52c0-.18,0-.34.05-.51s0-.23,0-.35a1.45,1.45,0,0,0,.17-.52.17.17,0,0,1,0-.07c0-.16.08-.31.12-.46s.11-.44.15-.68a1.85,1.85,0,0,1,0,.23c.09-.43.22-.85.34-1.27a7.17,7.17,0,0,1,.32-1.12.19.19,0,0,0-.05.1,1.19,1.19,0,0,0,.09-.7,1,1,0,0,0-.14-.34c0-.21.1-.44.16-.66.18-.63.33-1.27.45-1.93.09-.43.2-.84.29-1.28a2.54,2.54,0,0,0,.09-.54c0-.07,0-.15,0-.21s.07-.36.11-.55a4.74,4.74,0,0,1,.23-.84l.07-.11a4.26,4.26,0,0,1,.38-.35.87.87,0,0,1,.59-.19c.84,0,1.67,0,2.51,0h.19l.18,0,.46.07a3.1,3.1,0,0,1,.42,0h.59c.39,0,.77,0,1.16,0s.81,0,1.23,0c.22,0,.45,0,.68,0h.56c.54,0,1.08,0,1.61-.09.12,0,.25,0,.37,0,.74,0,1.5,0,2.25-.08h1.14c.49,0,1-.06,1.44-.1h-.05c.4,0,.79,0,1.18,0h1.29c.84,0,1.69-.08,2.55-.07h1.41l.76,0a7.49,7.49,0,0,0,.82,0h.13c.35,0,.7,0,1.05,0s.88,0,1.33,0l1.29,0c.43,0,.85,0,1.27-.06h.6a5.7,5.7,0,0,0,.82,0,9.85,9.85,0,0,0,1.08-.1l.14,0h0a1,1,0,0,0,.3,0,.13.13,0,0,0,.08,0,1.39,1.39,0,0,0,.38-.12l.24-.08h0c.17-.07.35-.15.52-.24a4.1,4.1,0,0,0,.71-.55,6.31,6.31,0,0,0,.54-.62,2.3,2.3,0,0,0,.38-1,3.4,3.4,0,0,1,.12-.34s0,0,0-.06a1.15,1.15,0,0,0,.21-.61,1.16,1.16,0,0,0-.15-.6s0,0,0,0a6.17,6.17,0,0,1,.16-.65v0s0,0,0,0h0a2.62,2.62,0,0,0,.13-.48c0-.11,0-.23.05-.34a5.58,5.58,0,0,1,.13-.69c.05-.21.1-.44.15-.67a1.1,1.1,0,0,0,.13-.41l0-.26a.13.13,0,0,1,0-.06v0a2.74,2.74,0,0,0,.09-.39,1,1,0,0,0,0-.17,2.33,2.33,0,0,0,.08-.36.64.64,0,0,1,0-.07h0a2.74,2.74,0,0,0,.15-.51,6,6,0,0,0,.11-.7,2.07,2.07,0,0,0,.1-.33,6.46,6.46,0,0,0,.11-.75c.07-.25.13-.52.2-.77s.12-.6.16-.89a4.81,4.81,0,0,1,.07-.53c.06-.29.15-.58.24-.87a7.89,7.89,0,0,0,.28-1.28l.18-.71c.09-.38.15-.77.23-1.17s.1-.57.16-.85.08-.31.11-.46.09-.45.12-.66c.09-.37.14-.71.21-1.08s.12-.52.17-.78,0-.35.07-.53.15-.61.19-.91.11-.43.16-.65,0-.36.07-.53.1-.46.14-.7a3.7,3.7,0,0,0,.07-.48,9.37,9.37,0,0,0,.19-.92c.06-.24.12-.48.17-.73s0-.41.08-.61.09-.44.14-.66a2.6,2.6,0,0,0,.05-.39,7.33,7.33,0,0,0,.2-.93c.05-.23.12-.46.16-.7,0,.1,0,.2-.05.3a5.18,5.18,0,0,1,.17-.56c0-.09.08-.18.11-.27s.05-.21.08-.31a2,2,0,0,1,.1-.26c0-.11,0-.21.07-.31a2.14,2.14,0,0,0,.1-.22,1.55,1.55,0,0,0,.07-.23.59.59,0,0,1,0-.08,4,4,0,0,1,.27-.4l0,0,.43-.49a2,2,0,0,1-.15.18l.27-.26a3.48,3.48,0,0,0,.38-.23l.23-.18.23-.11c.25-.07.51-.08.76-.15a1.21,1.21,0,0,0,.62-.39h0c.23,0,.48-.06.71-.1l.8-.09c.47,0,.94-.07,1.42-.08h1.1l.8,0c.43,0,.84,0,1.27,0l.54,0c.25,0,.51,0,.76,0s.29,0,.43,0a.91.91,0,0,0,.13.1l.17.1.17.13a.58.58,0,0,0,.05.14A1.89,1.89,0,0,0,209,66l-.06-.09a.44.44,0,0,1,.06.16v.05l0,.28c0,.19-.07.4-.1.6s-.08.54-.12.81c-.09.43-.15.86-.2,1.28s-.12.72-.17,1.08-.1.75-.17,1.12c-.12.7-.3,1.37-.48,2,0,.2-.1.38-.13.58s0,.35-.08.52a6.6,6.6,0,0,1-.13.73c0,.25-.06.51-.11.76-.14.84-.41,1.65-.54,2.48s-.26,1.55-.37,2.32-.28,1.54-.42,2.32-.3,1.54-.48,2.3-.38,1.65-.58,2.47-.45,1.66-.65,2.49c-.12.43-.18.88-.32,1.3,0,.09-.06.18-.08.26a3.87,3.87,0,0,0-.12.61c0,.18-.05.36-.08.54s-.06.37-.1.55a3.64,3.64,0,0,0-.09.73c0-.09,0-.19,0-.28a4.78,4.78,0,0,0,0,.66,5.16,5.16,0,0,0,.1.67,2.29,2.29,0,0,0,.56,1,4,4,0,0,0,.46.53,2.24,2.24,0,0,0,.73.39l.45.15h0l-.15,0,.41.13.15.06h0l.08,0a1.21,1.21,0,0,0,.38.12l.21,0,0,0h0l.2,0h.12a.29.29,0,0,1,.14,0l-.07,0,.31.07h.18a1,1,0,0,0,.31,0h0a1.06,1.06,0,0,0,.58-.09c.21,0,.43,0,.66,0h.53c.8-.07,1.62-.07,2.43-.17l.29,0a2.56,2.56,0,0,1,.62,0c.15,0,.3,0,.46,0l1.19-.09c.75-.07,1.5,0,2.26-.08.4,0,.8-.1,1.2-.11l1.23,0c.75,0,1.48-.07,2.22-.09.36,0,.73,0,1.09,0s.73-.06,1.1-.1c.74,0,1.48-.15,2.22-.14h1.36l1.22,0c.43,0,.85,0,1.28,0s.74,0,1.11,0,.7,0,1.06,0,.47,0,.71,0h.68l.44,0,.26,0a1.42,1.42,0,0,0,.29,0l.35,0h0a.3.3,0,0,0-.14,0h.06l.08,0h.15a.82.82,0,0,1,.22,0h.38l.05,0,.12,0,.16.1.11.11.09.18s0,.09,0,.15C236.24,97.75,236.25,98,236.27,98.29Z"/><path class="cls-1" d="M355.41.72s0,0,0,0a1.49,1.49,0,0,0-.32-.24l-.46-.21-.09,0a1.36,1.36,0,0,0-.4,0h-.46a.1.1,0,0,0-.07,0h-.08a3.87,3.87,0,0,0-.68,0h-.56a2.44,2.44,0,0,0-.54,0,5.43,5.43,0,0,1-.57,0h-1.06c-.47,0-.93,0-1.39,0a7.36,7.36,0,0,0-.81-.06h-.17c-.26,0-.55,0-.83,0a10.81,10.81,0,0,1-1.39.09,13.8,13.8,0,0,0-1.44,0c-.3,0-.58.07-.87.08a5.15,5.15,0,0,0-.95.12c-.52.06-1.06.05-1.6.1s-1.07.14-1.61.19c-.29,0-.57,0-.85.09s-.58,0-.86.05a15.18,15.18,0,0,0-1.78.22l-.29.05h0l-1,.14c-.47.08-.95.18-1.41.29l-2,.49c-.82.22-1.62.42-2.43.66-.38.13-.76.28-1.16.41l-1.05.4c-.56.23-1.12.42-1.69.65-.34.14-.69.28-1,.43l-.71.35c-.77.34-1.52.73-2.28,1.11s-1.64.83-2.44,1.29-1.44.85-2.13,1.31c-.36.24-.71.51-1.08.75s-.87.64-1.29,1l.27-.23c-.38.31-.78.6-1.16.91l.06,0-.06.05a0,0,0,0,0,0,0c-.28.21-.55.44-.81.67s-.45.36-.67.54c-1,.81-1.9,1.66-2.84,2.53-.42.4-.8.87-1.2,1.3a15.33,15.33,0,0,0-1,1.28c-.24.32-.47.64-.73.94s-.47.62-.69.94-.28.41-.42.63a24.89,24.89,0,0,0-2.63,4.6c-.15.37-.33.74-.47,1.12s-.27.68-.44,1c-.25.54-.53,1.07-.76,1.64a2.41,2.41,0,0,0-.16.42c-.09.2-.16.41-.23.61h0l-.27.77c0,.1-.06.22-.1.32l-.08.23c-.15.43-.28.87-.41,1.3a4.8,4.8,0,0,0-.1.92c0,.36,0,.7,0,1.06a1.33,1.33,0,0,0,1.36,1.27,1.32,1.32,0,0,0,.59-.18,1.36,1.36,0,0,0,.69-1.18c0-.33,0-.65,0-1a6.47,6.47,0,0,1,.35-1.36l0-.11,0-.12a.31.31,0,0,0,.05-.12l.12-.35a2,2,0,0,0,.1-.32s0-.07.05-.11a2.11,2.11,0,0,0,.1-.3s0,0,0-.05a1.33,1.33,0,0,0,.13-.33,13.62,13.62,0,0,1,.57-1.29c.31-.62.58-1.24.83-1.88a25.14,25.14,0,0,1,2.27-4.33l.38-.58c.13-.18.24-.37.37-.56s.23-.32.34-.49a.39.39,0,0,0,.08-.1c.16-.2.33-.42.5-.62s.43-.59.65-.89.62-.78.93-1.13.72-.81,1.1-1.18c.17-.18.36-.33.55-.5s.36-.36.54-.52l1.16-1,.4-.32.09-.09a.83.83,0,0,0,.16-.12l.76-.62c.14-.13.28-.24.43-.36.35-.26.71-.54,1.05-.81a10.56,10.56,0,0,1,1-.69c.37-.25.7-.53,1.09-.76.67-.42,1.35-.85,2-1.25s1.55-.84,2.34-1.24,1.39-.7,2.11-1l.78-.39c.33-.14.66-.28,1-.4s.81-.29,1.2-.44.71-.28,1.06-.41.77-.28,1.17-.41c.79-.27,1.61-.43,2.41-.66s1.37-.32,2-.5c.33-.09.67-.15,1-.22l1.1-.16.08,0h.13l.09,0h0l.31-.06c.48-.06,1-.1,1.48-.12s1.12-.11,1.7-.16,1.06-.14,1.6-.19l.88,0a7.11,7.11,0,0,0,.94-.11c.22,0,.45,0,.67,0l.79-.07c.42,0,.86,0,1.28,0h.45a6.48,6.48,0,0,0,.76-.06c.5,0,1-.07,1.5-.05a10.73,10.73,0,0,0,1.49.09c.43,0,.85,0,1.27,0a1.56,1.56,0,0,0,.31,0l.24,0c.18,0,.34,0,.52,0a5.24,5.24,0,0,0,.57,0,1.77,1.77,0,0,1,.46,0h.05l.32,0h.16l.16,0h0l.15.06a1.19,1.19,0,0,0,.81,0h0a1.27,1.27,0,0,0,.78-.64A1.3,1.3,0,0,0,355.41.72Z"/><path class="cls-1" d="M359.4,1.58a1.4,1.4,0,0,0-1.06-.66,4.93,4.93,0,0,0-.54-.05l-.3,0h-.34l-.69,0a1.93,1.93,0,0,0-.34,0H356l-.54-.06.3,0a1.54,1.54,0,0,1-.31-.05c-.54-.06-1.07-.17-1.6-.24-.33,0-.65-.12-1-.13h-.12l-.8,0c-.3,0-.62,0-.94,0-.48,0-1,0-1.44.06s-.83.07-1.25.07h-.54c-.31,0-.61,0-.92.05a1.33,1.33,0,0,0-1.26,1.36,1.26,1.26,0,0,0,.51,1,1.25,1.25,0,0,0,.84.29c.46,0,.93,0,1.39,0a11,11,0,0,0,1.15,0,15.66,15.66,0,0,1,2.16-.08h.14c.21,0,.4,0,.6.05a1.72,1.72,0,0,1,.32,0l.13,0c.91.13,1.8.3,2.72.39l-.33,0a6.83,6.83,0,0,0,1.11.08,5.61,5.61,0,0,1,.58,0h.28a4.93,4.93,0,0,0,.54,0l.05,0h.06A1.28,1.28,0,0,0,359,3.39a.7.7,0,0,0,.16-.14A1.29,1.29,0,0,0,359.4,1.58Z"/><path class="cls-1" d="M381.06,9.66a2,2,0,0,0-.21-.47l-.07-.09A2.48,2.48,0,0,0,380.12,8a6.52,6.52,0,0,0-.82-.59l-.1-.08a4.65,4.65,0,0,0-.64-.41,3.42,3.42,0,0,1-.59-.32c-.38-.23-.81-.41-1.23-.61l-.57-.27-.64-.27-1.47-.61c-.61-.26-1.22-.52-1.8-.79-.8-.36-1.61-.6-2.42-.88-.32-.12-.65-.22-1-.32l-.17-.06c-.34-.12-.69-.24-1-.33s-.59-.13-.89-.23a9.32,9.32,0,0,0-.9-.27l-.82-.16c-.55-.12-1.11-.22-1.66-.33s-1.09-.2-1.61-.35-.95-.23-1.42-.33-.76-.13-1.13-.23a9.45,9.45,0,0,0-1.3-.18l-.75-.09a7.6,7.6,0,0,0-1.06,0c-.34,0-.67,0-1,0h.05l-.37,0a0,0,0,0,0,0,0,.82.82,0,0,0-.22,0h-.81l-1,.08c-.24,0-.48,0-.72,0a1.32,1.32,0,0,0-1.26,1.36,1.3,1.3,0,0,0,.55,1,.63.63,0,0,0,.21.12,1.21,1.21,0,0,0,.59.13l.6,0c.41,0,.83-.09,1.24-.1.21,0,.41,0,.62,0h.2a9.85,9.85,0,0,0,1.09,0h.93l.37,0-.33,0,1,.12a12.26,12.26,0,0,1,1.21.22l.23,0a11.26,11.26,0,0,1,1.31.27l.76.21c.3.07.59.11.87.18.53.12,1.05.18,1.58.3s1.35.25,2,.46c.19.07.37.14.55.19s.33.06.5.11.65.17,1,.28l.32.12-.32-.13c.41.15.82.28,1.23.42s.87.3,1.3.44,1.15.5,1.71.75,1,.42,1.55.65.9.39,1.36.57.79.38,1.18.57.48.27.71.38l.36.2c.08.05.19.09.28.14l.44.32.17.1a.41.41,0,0,1,.1.09v0l0,.12c0,.13.12.28.19.42s0,.14,0,.22a2.85,2.85,0,0,0,0,.5,2.28,2.28,0,0,0,0,.26c0,.17-.06.35-.08.52v0a4.33,4.33,0,0,1-.19.85c0-.06.05-.13.07-.2-.11.33-.19.65-.3,1l0-.08a.42.42,0,0,0,0,.1.71.71,0,0,1-.11.17c-.06.1-.1.22-.16.31l-.26.46c-.12.19-.21.41-.33.61s-.18.36-.28.53-.17.34-.28.51-.1.23-.17.33a2.07,2.07,0,0,0-.15.34l-.23.5a6.07,6.07,0,0,0-.24.59l-.09.18-.08.15a3,3,0,0,0-.12.32s0,.07,0,.09a5.5,5.5,0,0,1-.28.6,7.11,7.11,0,0,0-.59.88c-.11.2-.23.39-.34.57a.13.13,0,0,0,0,.06l-.18.22a2.6,2.6,0,0,0-.31.48,2.05,2.05,0,0,0-.24.36c0,.08-.08.17-.13.26l-.17.38-.07.15a3.17,3.17,0,0,1-.3.34l-.32.34a1.32,1.32,0,0,0,0,1.79l.07.06a1.32,1.32,0,0,0,1.85-.06l.46-.5c.09-.1.18-.19.26-.29a4.78,4.78,0,0,0,.29-.44,1.24,1.24,0,0,0,.15-.33c0-.06.06-.11.09-.18s.08-.19.13-.28a3.37,3.37,0,0,0,.21-.31l.09-.15.16-.23a.71.71,0,0,0,.12-.18c.12-.16.23-.34.34-.52s.27-.45.4-.67a5,5,0,0,0,.47-.66,5.73,5.73,0,0,0,.33-.81c0-.06,0-.12.07-.19a.83.83,0,0,1,.09-.16,2.09,2.09,0,0,0,.16-.44c.12-.28.26-.55.39-.82a5.26,5.26,0,0,1,.34-.67l.27-.5c.19-.39.41-.77.61-1.14.08-.15.18-.31.26-.45a2.58,2.58,0,0,1,.18-.32,3.77,3.77,0,0,0,.23-.64c.07-.24.15-.47.21-.71a3.56,3.56,0,0,0,.16-.53c0-.2.06-.42.09-.62s.05-.41.07-.6.07-.41.08-.62v-.15c0-.09,0-.17,0-.24v-.07s0,0,0-.06c0-.17,0-.32,0-.49A1.2,1.2,0,0,0,381.06,9.66Z"/><path class="cls-1" d="M377.5,8.11a1.33,1.33,0,0,0,.75,1.7l.17.06.13.11.07.09c0,.07.07.15.11.23a5.92,5.92,0,0,1,.12.93,3.94,3.94,0,0,1-.09.76c0,.1-.05.21-.07.31a2.86,2.86,0,0,1,.07-.28v0c-.07.27-.13.55-.2.83,0,.09-.05.19-.08.28s-.17.37-.24.57-.25.62-.39.93c-.26.61-.55,1.21-.85,1.8l0,0-.42.79.08-.13-.33.62c-.1.18-.2.36-.29.54l-.41.75c-.11.21-.23.41-.35.62,0-.05.05-.1.08-.14-.17.29-.37.55-.54.83l-.55.92c-.23.39-.52.74-.78,1.11-.11.16-.2.33-.32.48l-.21.26-.05.05-.05,0-.1,0a.66.66,0,0,0-.2-.06,1.29,1.29,0,0,0-1.36-.18,1.31,1.31,0,0,0-.64,1.74,1.5,1.5,0,0,0,.25.4,1.15,1.15,0,0,0,.33.29h0a2.25,2.25,0,0,0,.38.19l.27.07h.07l.11.06a2,2,0,0,0,.33.08,2.86,2.86,0,0,0,.64.16,1.56,1.56,0,0,0,.57-.06,1.76,1.76,0,0,0,.51-.19h0a2.56,2.56,0,0,0,.7-.54l-.09.1.24-.25-.14.15c.2-.2.37-.41.55-.61a6,6,0,0,0,.36-.52c.26-.4.58-.77.82-1.18.38-.65.82-1.28,1.19-1.95l-.05.1.54-1c.15-.26.3-.52.44-.79s.3-.55.44-.83l-.09.18c.12-.24.23-.47.35-.7.43-.77.79-1.57,1.15-2.37.08-.18.16-.37.23-.56s.2-.44.28-.67c.15-.44.23-.9.34-1.36a6.24,6.24,0,0,0,.16-.75c0-.17,0-.33,0-.5a5.63,5.63,0,0,0-.09-1.36,4.14,4.14,0,0,0-.75-1.78,3.84,3.84,0,0,0-.58-.56,2.62,2.62,0,0,0-.84-.45,1.48,1.48,0,0,0-.46-.08,1.32,1.32,0,0,0-1.24.83Zm-4.73,15.15h0l-.05,0,.06,0Z"/><path class="cls-1" d="M359.81,20h-.05l.1,0Zm16.18.66a1.26,1.26,0,0,0-1.25-.18,1,1,0,0,0-.51.34l-.08.07c-.21.27-.4.57-.63.81l-.07.06-.43.39-.11.1.06-.08-.16.14-.18.1a.78.78,0,0,0-.18.11l-.21.07h-.1a2,2,0,0,0-.23-.18,7.79,7.79,0,0,0-.8-.52,1.79,1.79,0,0,0-.18-.14,6.59,6.59,0,0,0-.72-.44,3.47,3.47,0,0,0-.33-.18,6.92,6.92,0,0,0-.81-.43c-.23-.09-.44-.17-.66-.28l-.72-.36c-.25-.13-.49-.28-.76-.4-.5-.21-1-.43-1.51-.66a8.67,8.67,0,0,0-1.56-.6l-.4-.08c-.25-.06-.51-.11-.75-.18l-.55-.14a2,2,0,0,1-.26-.09,5.52,5.52,0,0,0-.54-.16h0l-.07,0-.68-.2-.08,0c-.29-.06-.61-.16-.91-.23l-.57-.1a17.42,17.42,0,0,0-1.74-.38c-.32-.05-.64-.07-1-.12a8.27,8.27,0,0,0-.87-.11,6.15,6.15,0,0,0-.75-.09c-.2,0-.41,0-.61-.05s-.49,0-.72-.08a6.73,6.73,0,0,0-.77-.09c-.92-.06-1.82-.11-2.74-.1l-1.12,0h-.41l-.47,0-1.75.05a7.18,7.18,0,0,0-.8,0c-.26,0-.52,0-.77,0a11.47,11.47,0,0,0-1.66.08c-.45.05-.91.06-1.36.11s-1.12.14-1.68.25-1.17.21-1.74.36l.18-.06c-.3.08-.6.14-.91.21s-.86.24-1.28.36a17.68,17.68,0,0,0-2,.66c-.57.23-1.15.47-1.71.72s-1.1.44-1.63.73-1.31.76-2,1.16h0c-.33.19-.68.37-1,.59l-.84.55a7.19,7.19,0,0,0-.78.54c-.31.23-.62.48-.91.72-.55.45-1.09.94-1.6,1.42a14.13,14.13,0,0,0-1.59,1.8,18.38,18.38,0,0,0-1.55,2.45s0,0,0,0c-.26.46-.53.91-.75,1.38s-.41.89-.61,1.33-.25.59-.35.88a1.42,1.42,0,0,0,0,.16,1.52,1.52,0,0,0-.06.2.09.09,0,0,0,0,.05,3.47,3.47,0,0,0-.19.57s0,0,0,0l-.08.19-.15.44a1.12,1.12,0,0,0-.08.57v0a1.33,1.33,0,0,0,.8,1.11,1.34,1.34,0,0,0,1.5-.38s0,0,0,0v0a.71.71,0,0,0,.16-.28,9.44,9.44,0,0,0,.32-.89c.08-.18.14-.37.21-.55,0,0,0,0,0,0a.6.6,0,0,1,.08-.21c0-.13.09-.25.13-.36a.08.08,0,0,0,0,0l.06-.17c.16-.42.36-.82.55-1.22s.37-.76.58-1.13l.29-.52a.73.73,0,0,1,.05-.09.18.18,0,0,0,0-.08,16.52,16.52,0,0,1,2.21-3c.75-.7,1.53-1.37,2.33-2a5.52,5.52,0,0,1,.6-.45l.63-.41,1.11-.7.28-.15.15-.09,1.2-.73c.94-.51,1.95-.9,2.93-1.32.59-.24,1.18-.48,1.79-.67s1-.34,1.56-.48c.33-.07.68-.14,1-.23s.93-.18,1.4-.27,1-.19,1.57-.24.81-.08,1.23-.1c.22,0,.44-.05.65-.06s.41,0,.6,0h.87c.19,0,.39,0,.58,0h1.19c.43,0,.87,0,1.3,0h1.7c.58,0,1.16,0,1.74.07l.83.05c.25,0,.5.06.74.1l1.34.12c.55.05,1.1.14,1.65.21.36.05.73.08,1.09.14l.64.12.1,0,.14,0c.24.07.48.14.73.19l.65.13.18.05a.35.35,0,0,0,.14,0L360,20h0l.45.14.07,0h0l.09,0s0,0,0,0h.1l.29.12q.31.09.63.15l.56.17c.18,0,.36.06.54.11l-.13,0c.2.05.41.11.61.14.37.13.71.31,1.05.46s1,.4,1.43.63c.26.12.51.23.76.37s.47.23.7.36c.42.23.88.37,1.3.6.13.06.25.14.37.2l.17.11a2.08,2.08,0,0,1,.38.25,2,2,0,0,0,.36.23,7.68,7.68,0,0,1,.65.47.8.8,0,0,0,.18.12A3.56,3.56,0,0,0,371,25a3.14,3.14,0,0,0,.69.2,1.78,1.78,0,0,0,.76,0,3.48,3.48,0,0,0,1.26-.42.64.64,0,0,1,.18-.1v0a1.85,1.85,0,0,0,.47-.27l.1-.07a.52.52,0,0,0,.17-.16l.19-.15.26-.24h0c.06-.07.14-.13.2-.21a4.61,4.61,0,0,0,.59-.65,1.35,1.35,0,0,1,.16-.19l.16-.23a.71.71,0,0,0,.12-.18A1.32,1.32,0,0,0,376,20.65Z"/><path class="cls-1" d="M360.19,76.4h0l0,0Zm3.87,5.13a.79.79,0,0,0-.14-.31,5.15,5.15,0,0,0-.37-.58c-.1-.14-.21-.26-.3-.4a9,9,0,0,1-.58-.93.59.59,0,0,0-.08-.11s0,0,0,0a1.2,1.2,0,0,0-.19-.27,3.33,3.33,0,0,0-.38-.48l-.88-1,0,0,0,0h0l-.08-.08-.05-.06c-.15-.15-.3-.33-.46-.49s-.09-.1-.12-.15a1.92,1.92,0,0,1-.14-.15l0,0,0,0,0,0c-.26-.27-.53-.51-.77-.77l-.28-.33c-.2-.24-.4-.5-.61-.74s-.42-.43-.63-.62l-.69-.66c-.24-.23-.51-.42-.77-.63s-.43-.38-.66-.56l-.82-.68c-.46-.38-.88-.79-1.34-1.17-.21-.17-.4-.37-.6-.54s-.4-.29-.6-.45c-.47-.34-.91-.73-1.4-1.06-1.16-.8-2.3-1.65-3.48-2.4l-.12-.06a.33.33,0,0,0-.11-.08l-1-.67-.94-.6-1.34-.84-.06,0-.05,0s0,0,0,0l-.05,0,0,0q-.66-.44-1.29-.9a8.22,8.22,0,0,1-.65-.52c-.25-.2-.52-.38-.78-.55l0,0-.17-.12-.55-.42c-.33-.26-.68-.49-1-.72s-.92-.64-1.38-.93l-1.18-.77a.49.49,0,0,1-.11-.07l-.08,0s0,0,0,0h0a0,0,0,0,0,0,0s-.07,0-.09-.07h0c-.1-.07-.22-.13-.32-.21l-.65-.42-.13-.08s-.06,0-.09-.06l-.25-.18a.82.82,0,0,1-.17-.11s0,0-.05,0l0,0a3.36,3.36,0,0,0-.49-.35c-.28-.19-.57-.36-.86-.54l-.36-.26c-.21-.16-.42-.3-.64-.44a9,9,0,0,1-.77-.57,7.62,7.62,0,0,0-.87-.62s0,0,0,0l-.16-.11c-.3-.22-.58-.44-.86-.67L329,53c-.2-.14-.41-.28-.63-.41s-.64-.46-.94-.7-.59-.54-.88-.81c-.55-.5-1.13-1-1.63-1.51-.29-.32-.6-.61-.88-.92l-.06-.07a.23.23,0,0,1-.07-.07c-.37-.43-.75-.89-1.11-1.35a12.67,12.67,0,0,1-1-1.5,14.68,14.68,0,0,1-.78-2c-.12-.38-.2-.79-.33-1.17a10.69,10.69,0,0,1-.36-1.09c0-.23-.11-.47-.16-.7a8.65,8.65,0,0,1-.16-.86c0-.07,0-.14,0-.22a8.37,8.37,0,0,1-.12-1.11l0-.53c0-.3.09-.58.12-.87a8.84,8.84,0,0,1,.15-1.26.64.64,0,0,0,.06-.16s0,0,0,0a1.65,1.65,0,0,0,.15-.25s0,0,0,0v0a1,1,0,0,0,.06-.18,1.22,1.22,0,0,0,.12-.19,1.34,1.34,0,0,0-.62-1.76,1.39,1.39,0,0,0-.56-.13,1.34,1.34,0,0,0-1.06.51v0h0l0,0a1.76,1.76,0,0,0-.29.62l-.12.19a1.56,1.56,0,0,0-.15.41,3.2,3.2,0,0,0-.19.69,6.29,6.29,0,0,0-.11.74c-.07.63-.15,1.25-.2,1.89a7.64,7.64,0,0,0,.14,2c.08.51.19,1,.32,1.52a11.53,11.53,0,0,0,.33,1.25,9,9,0,0,1,.3.92,12.22,12.22,0,0,0,.71,2.06c.18.36.32.73.51,1.09s.35.59.54.88a15.7,15.7,0,0,0,1.23,1.62l.15.18c.27.32.55.64.83.95s.43.42.64.64a11.52,11.52,0,0,0,.92.93l1,.89c.35.32.71.64,1.08.94s.81.58,1.24.85.66.53,1,.8a13.52,13.52,0,0,0,1.17.81c.25.18.47.39.71.58a10.73,10.73,0,0,0,.93.62l.59.44,1,.6,1.05.72.86.56h0l0,0,0,0a0,0,0,0,0,0,0h0l.05,0a.18.18,0,0,1,.08,0l.08.05.05,0h0l.14.1,1.6,1c.36.23.7.49,1.07.74.58.39,1.13.82,1.7,1.21a.51.51,0,0,0,.13.09h0a0,0,0,0,1,0,0h.05c.39.28.75.62,1.15.9s.94.66,1.42,1,.84.53,1.26.79l.08.05s0,0,0,0h0l.07,0c.3.22.64.39.94.61l1.08.69c.32.22.65.42,1,.63,1,.69,2,1.39,3,2.12.46.33.89.7,1.33,1s.85.71,1.26,1.07.71.65,1.08,1L354,74c.18.14.34.31.52.45.4.34.81.65,1.19,1a12.18,12.18,0,0,1,.89.87c.18.2.34.41.53.61a.07.07,0,0,0,0,.05c0,.06.09.11.12.16s.32.36.49.52a4.21,4.21,0,0,0,.37.36l0,0a.34.34,0,0,0,.09.08l.16.2c.19.23.41.44.61.67a.8.8,0,0,0,.13.13c.19.23.4.45.62.67s.29.33.44.52c0,0,0,0,0,0,.18.23.29.52.46.77s.15.24.23.35.11.17.16.25c.23.3.45.62.65.94a1.34,1.34,0,0,0,1.83.35A1.29,1.29,0,0,0,364.06,81.53Z"/><path class="cls-1" d="M322.63,47.25c-.13-.15-.25-.31-.37-.47,0,0,0,0,0,0a.09.09,0,0,1,0,0s0,0,0-.05-.09-.15-.12-.22-.23-.37-.34-.53a9.87,9.87,0,0,1-.57-1.18,7.19,7.19,0,0,1-.4-1,1.15,1.15,0,0,0-.06-.17l0-.13a.74.74,0,0,0,0-.14c-.16-.57-.27-1.14-.41-1.7a6.8,6.8,0,0,1-.15-1.18c0-.11,0-.22,0-.33v-.22c0-.33,0-.66,0-1a7.87,7.87,0,0,1,.09-1.38v0h0s0,0,0,0h0a.06.06,0,0,0,0,0s0,0,0,0v0h0a.15.15,0,0,0,0-.09c0-.24.09-.49.12-.74s.12-.37.18-.58.12-.46.17-.7a.4.4,0,0,1,0,.15,5.18,5.18,0,0,1,.17-.56,5.65,5.65,0,0,0,.15-.66.54.54,0,0,0,0-.1.17.17,0,0,1,0-.07,2.19,2.19,0,0,0,.17-.38s0,0,0,0a.6.6,0,0,1,.08-.21c0-.07.06-.13.09-.21a.42.42,0,0,0,0-.15.08.08,0,0,0,0,0,1.39,1.39,0,0,0-.1-.81,1.41,1.41,0,0,0-.77-.67,1.23,1.23,0,0,0-.42-.07,1.34,1.34,0,0,0-.56.12,1.37,1.37,0,0,0-.68.76s-.05.09-.08.14a1.42,1.42,0,0,0,0,.16,1.52,1.52,0,0,0-.06.2.09.09,0,0,0,0,.05,1.78,1.78,0,0,0-.17.41c0,.05,0,.11,0,.16s0,0,0,0a.58.58,0,0,1,0,.14s0,.1,0,.16a3.26,3.26,0,0,1-.15.44,4.35,4.35,0,0,0-.11.46v0s0,0,0,0c-.12.49-.3,1-.39,1.44,0,.21-.06.4-.1.6s0,.11,0,.16l0,0s0,0,0,.07,0,.06,0,.09c-.05.23-.08.46-.11.69s0,.61,0,.9,0,.46,0,.69a7.3,7.3,0,0,0,0,.81v.15a8.63,8.63,0,0,0,.18,1.61c.14.6.25,1.2.43,1.81.09.3.18.6.28.88a12,12,0,0,0,1.08,2.43v0l.08.12c.09.15.19.3.28.46l.13.21c.06.09.12.2.19.3a.51.51,0,0,0,.09.13v0c.08.12.15.23.23.33s.19.23.28.34h0a1.21,1.21,0,0,0,.79.69,1.28,1.28,0,0,0,.28.07,1.32,1.32,0,0,0,1.41-1.21A2,2,0,0,0,322.63,47.25Z"/><path class="cls-1" d="M369.23,98.79c0-.66,0-1.31-.14-2-.19-1.24-.35-2.48-.51-3.72-.05-.39-.14-.79-.23-1.18s-.27-.85-.39-1.27c-.27-.94-.52-1.88-.85-2.81a2,2,0,0,1-.09-.26c0-.1-.08-.2-.12-.32l0,.08c-.06-.14-.11-.28-.17-.43-.16-.46-.33-.92-.49-1.4a10.21,10.21,0,0,0-.46-1.15c-.16-.29-.34-.57-.5-.87s-.36-.55-.53-.81-.37-.64-.57-1a1.4,1.4,0,0,0-.16-.2c-.07-.12-.16-.23-.25-.36l-.09-.14c-.08-.12-.14-.26-.22-.39l-.3-.44a.75.75,0,0,1-.13-.18,3.09,3.09,0,0,1-.23-.31,3.44,3.44,0,0,1-.25-.51s0,0,0,0a1.2,1.2,0,0,0-.19-.27,1.38,1.38,0,0,0-.6-.39,1.14,1.14,0,0,0-.37,0,1.4,1.4,0,0,0-.61.14,1.34,1.34,0,0,0-.66.78,1.5,1.5,0,0,0,.09,1s0,0,0,0a3.43,3.43,0,0,0,.25.55c.14.2.3.38.44.57s.11.17.16.25l.12.17a2,2,0,0,0,.25.43l.37.56.18.22s0,0,0,0,.05.06.06.1l.34.6c.13.24.31.47.45.72a9.93,9.93,0,0,1,.83,1.54c.12.35.26.69.39,1s.26.78.39,1.16h0a.08.08,0,0,0,0,.06.43.43,0,0,1,0,.05l0,0s0,0,0,.07,0,.17.08.26c.23.64.41,1.28.59,1.91s.41,1.26.55,1.91c.06.31.12.61.17.92s.09.69.16,1c.09.62.14,1.24.23,1.87.06.44.14.87.19,1.32,0,.2,0,.42,0,.62s0,.64.05,1c0,.54,0,1.06-.05,1.6-.06,1.24-.15,2.48-.28,3.71-.05.38-.11.76-.16,1.15s-.11.67-.16,1-.15.67-.22,1a.6.6,0,0,0,0,.12c0,.07,0,.14,0,.21q-.15.72-.36,1.44c-.15.59-.27,1.19-.39,1.79-.07.28-.12.58-.21.87l-.27,1a13.71,13.71,0,0,1-.64,1.72c-.06.17-.12.35-.19.51a3.56,3.56,0,0,0-.25.61l0,0c-.05.19-.1.38-.16.58h0c-.08.13-.16.24-.22.36a3.28,3.28,0,0,0-.24.55,1.31,1.31,0,0,0-.12.91,1.22,1.22,0,0,0,.59.83,1.27,1.27,0,0,0,1,.16,1.09,1.09,0,0,0,.56-.3,2.42,2.42,0,0,0,.27-.28,1.73,1.73,0,0,0,.23-.54l.09-.15a3.48,3.48,0,0,0,.22-.43,3.66,3.66,0,0,0,.25-.62.27.27,0,0,0,0-.12c.05-.15.09-.29.15-.44s.16-.36.23-.54h0c0-.06,0-.11.07-.16.11-.28.23-.55.33-.83a17.22,17.22,0,0,0,.57-1.81c.32-1.18.55-2.38.85-3.56.1-.38.18-.78.25-1.17s.14-.63.22-.94.15-.93.22-1.4a19,19,0,0,0,.25-2c0-.3,0-.59.08-.89s.06-.74.09-1.11c0-.55.06-1.1.09-1.65A17,17,0,0,0,369.23,98.79Z"/><path class="cls-1" d="M365.48,114.86a1.31,1.31,0,0,0-.57-.13,1.38,1.38,0,0,0-1.19.73,5.6,5.6,0,0,0-.33.59l0,0c-.07.14-.16.28-.24.42s-.28.58-.42.86c-.23.5-.46,1-.74,1.46l-.22.26c-.15.21-.29.43-.43.64s-.39.53-.57.78c0,0,0,0-.05.07s0,0,0,0a.16.16,0,0,1,0,.07l-.11.16a15.5,15.5,0,0,1-1.13,1.41c-.42.48-.79,1-1.24,1.51-.85.94-1.58,2-2.51,2.87l-.32.31-.44.38c-.52.45-1,.92-1.51,1.41-.25.25-.52.5-.79.74s-.34.36-.52.52l-.63.5c-.34.3-.68.59-1,.86s-.72.51-1.08.76-.77.58-1.17.85c-.62.39-1.26.77-1.86,1.16s-1.17.81-1.77,1.18l-1,.56-.12.06-.27.13-.19.1s0,0-.05,0l-.06,0-.5.27-.91.41c-.36.16-.7.35-1,.53l-1.78.76a16.77,16.77,0,0,1-1.78.69c-.6.19-1.2.39-1.79.63l-.85.28-.95.31c-.77.27-1.51.52-2.29.71l-.89.16-1.11.21-1.51.32c-.47.09-.95.14-1.42.25s-1,.2-1.52.32l-.73.11a7,7,0,0,1-.91.05,5.16,5.16,0,0,0-.78.08h-.25a1.27,1.27,0,0,1-.26,0,1.39,1.39,0,0,0-.87.21,1.31,1.31,0,0,0,.49,2.37,1.06,1.06,0,0,0,.24,0,3.43,3.43,0,0,0,.64,0c.41,0,.82-.09,1.23-.1a5.59,5.59,0,0,0,.91-.08,14.11,14.11,0,0,0,1.44-.29c.43-.09.87-.17,1.29-.23.59-.08,1.15-.22,1.73-.35l1-.21c.69-.13,1.38-.23,2.06-.38a16,16,0,0,0,2-.58c.61-.23,1.24-.42,1.86-.63.3-.09.59-.23.88-.34s.61-.2.9-.29a19.17,19.17,0,0,0,2.29-.86c.39-.2.8-.35,1.21-.53s.78-.38,1.16-.57.92-.43,1.38-.64c0,0,0,0,.07,0l.06,0a.7.7,0,0,0,.17-.09l.51-.25.37-.19.22-.12a15.57,15.57,0,0,0,1.68-1c.59-.38,1.15-.78,1.74-1.15s1.45-.89,2.14-1.38,1.49-1.05,2.17-1.64l1-.85c.4-.32.75-.69,1.12-1,.61-.57,1.2-1.17,1.82-1.72l.29-.26a.63.63,0,0,1,.12-.11,1,1,0,0,0,.27-.23s0,0,0,0c.39-.35.76-.72,1.11-1.1s.82-1,1.23-1.47.8-.92,1.2-1.39c.2-.27.41-.54.62-.8s.45-.49.66-.78l.39-.52a5.58,5.58,0,0,0,.44-.64,0,0,0,0,1,0,0c.27-.38.55-.77.8-1.15l-.17.28c.3-.46.63-.88.92-1.36a6.36,6.36,0,0,0,.3-.58,3.37,3.37,0,0,0,.17-.32c.15-.31.27-.64.45-1s.32-.57.47-.87c.09-.14.16-.28.24-.42a1.14,1.14,0,0,0,.14-.56h0A1.34,1.34,0,0,0,365.48,114.86Z"/><path class="cls-1" d="M302,144.48h-.1l.11,0A0,0,0,0,0,302,144.48ZM282.3,131.64s0,0,0,0v0Zm41.39,10.57a9.82,9.82,0,0,1-1.21.07h-.64a3.24,3.24,0,0,0-.44,0c-.34,0-.69,0-1,0s-.69.06-1,.11a12.67,12.67,0,0,1-1.63,0,13.15,13.15,0,0,0-1.66.05c-.45,0-.89,0-1.32,0h-.58c-.66,0-1.32,0-2,0h-.52c-.43,0-.88,0-1.32,0l-1.94-.14c-1.38-.09-2.76-.14-4.14-.27-.63-.05-1.25-.1-1.88-.18h-.09l-.24,0c-.15,0-.3-.05-.45-.06l.33,0-1.7-.26-.34-.05c-.36-.05-.72-.1-1.06-.17s-.67-.15-1-.19c-.64-.09-1.26-.25-1.89-.38s-1.07-.26-1.61-.39l-1.53-.35a16.39,16.39,0,0,1-1.84-.58c-.53-.22-1-.46-1.55-.68l-.23-.08-.41-.17-.24-.1-.18-.07h0l-.23-.1-.71-.31c-.46-.19-.9-.41-1.34-.61s-.91-.5-1.39-.74-.94-.44-1.39-.69-.71-.43-1.06-.67a4.77,4.77,0,0,1-.71-.71l-.12-.17a.32.32,0,0,0,0-.09v-.08a.4.4,0,0,0,0-.15v.08a.45.45,0,0,1,0-.16c0-.09.09-.16.12-.24a3.29,3.29,0,0,0,.23-.46c.12-.24.22-.5.34-.74h0l.05-.11s0-.05,0-.06a.5.5,0,0,0,.05-.13.42.42,0,0,0,0-.1,1.43,1.43,0,0,0,.09-.27,1.35,1.35,0,0,0,.08-.36v0a1.24,1.24,0,0,0,.11-.52.22.22,0,0,0,0-.08,1.26,1.26,0,0,0-.38-.86,1.38,1.38,0,0,0-.95-.37,1.14,1.14,0,0,0-.91.39,1.53,1.53,0,0,0-.38.71,1,1,0,0,1,0,.23,0,0,0,0,0,0,.05.13.13,0,0,1,0,.05l-.09.29-.08.2c-.11.24-.23.47-.32.7a1.22,1.22,0,0,1,.07-.17,4.21,4.21,0,0,1-.3.55c-.1.19-.16.37-.24.56a2,2,0,0,0-.09.49l-.08.46a3.44,3.44,0,0,0,.08.78,2.17,2.17,0,0,0,.37.87s0,.05.05.06a6.73,6.73,0,0,0,.62.79,4.37,4.37,0,0,0,.92.78,12,12,0,0,0,1.44.91c.32.17.65.3,1,.45l.83.47c.7.37,1.42.7,2.16,1l1,.43.21.09h0l.05,0h0l.23.09.18.08.13.05a1.09,1.09,0,0,0,.23.09h0s0,0,.06,0l.36.14c.51.22,1,.46,1.51.66a9.39,9.39,0,0,0,1.47.49c.24.05.49.13.73.19l.8.18c1.13.27,2.25.54,3.38.78.45.09.89.15,1.34.23s.95.18,1.42.24a2.08,2.08,0,0,0,.36.05l1.7.27a1.08,1.08,0,0,0,.19,0l.24,0h.33c.65.08,1.28.13,1.93.2s1.38.14,2.09.16c1.34.05,2.67.17,4,.26.8,0,1.6,0,2.39,0H314c.64,0,1.28,0,1.91,0s1.11-.08,1.66-.06l1.21,0a10.92,10.92,0,0,0,1.15-.1c.53,0,1.05,0,1.56-.06l.14,0a4.21,4.21,0,0,1,.5,0h.44a7.53,7.53,0,0,0,1.16-.07,1.93,1.93,0,0,0,.54-.12,1.17,1.17,0,0,0,.4-.28,1.34,1.34,0,0,0,.38-.91A1.31,1.31,0,0,0,323.69,142.21Z"/><path class="cls-1" d="M290.83,120.29a2.25,2.25,0,0,0-.67-.67,2.15,2.15,0,0,0-.43-.16h0l-.41-.17-.45-.19-.15-.07h0a2.16,2.16,0,0,0-.78-.14h-.18a1.64,1.64,0,0,0-.56.13,6.76,6.76,0,0,0-.77.36,2.33,2.33,0,0,0-.6.57c-.23.28-.46.55-.66.84a12,12,0,0,0-.81,1.32c-.24.44-.43.88-.65,1.33l-.61,1.27c-.21.43-.46.84-.69,1.26s-.55.92-.82,1.38-.51,1-.79,1.41-.57.89-.85,1.34a9.3,9.3,0,0,0-.74,1.56,8.43,8.43,0,0,0-.37,1.33,5.51,5.51,0,0,0-.15,1,4.23,4.23,0,0,0,.13,1.22,1.09,1.09,0,0,0,.44.66,1.18,1.18,0,0,0,.18.13,1.38,1.38,0,0,0,1,.12,1.46,1.46,0,0,0,.8-.64,1.4,1.4,0,0,0,.1-1s0-.06,0-.09,0-.28,0-.42a7.16,7.16,0,0,1,.19-.8c.08-.26.13-.53.22-.77a10.28,10.28,0,0,1,.84-1.53c.21-.31.4-.61.58-.91.28-.46.52-.95.79-1.41s.56-.91.82-1.38.46-.79.66-1.21.38-.83.6-1.24.4-.88.63-1.31c.14-.25.28-.51.43-.76s.14-.23.21-.33a4.31,4.31,0,0,1,.32-.4c.09-.1.17-.23.26-.35l.08,0h0a1.66,1.66,0,0,1,.31.12l.08,0,.1,0,.17.08a.26.26,0,0,1,.1,0l.06,0h0l0,0a1.23,1.23,0,0,0,.61.35,1.16,1.16,0,0,0,.69,0s0,0,0,0h0a1.11,1.11,0,0,0,.3-.12A1.34,1.34,0,0,0,290.83,120.29Z"/><path class="cls-1" d="M290,122.18s0,0,.05,0,0,0,0,0h0Zm28.22,3.92h0Zm-.73.08h.09a0,0,0,0,0,0,0Zm6.54-.15a1.29,1.29,0,0,0-1-.46,4.69,4.69,0,0,0-.54.06h-.08c-.63.06-1.25.19-1.89.24,0,0,0,0-.05,0h-.06c-.45,0-.88.1-1.33.14h-.06l-.24,0-.45,0-.68.07h-.08a0,0,0,0,1,0,0h-.16c-.16,0-.33,0-.49,0h-.32l-.71,0a1.41,1.41,0,0,1-.29,0,.18.18,0,0,1-.1,0c-.36,0-.72,0-1.08,0-.58,0-1.18-.09-1.77-.09a12.31,12.31,0,0,1-1.6-.12c-.56-.08-1.14-.18-1.71-.22l-.44,0-1.35-.23-.37-.07-.45-.07-.06,0h-.07c-.32-.05-.62-.1-.94-.17l-.82-.17c-.31-.07-.58-.18-.87-.27-.55-.17-1.11-.28-1.66-.44-.27-.07-.53-.16-.78-.24s-.56-.14-.84-.24-.61-.21-.9-.34-.59-.24-.89-.34l-1.42-.47c-.46-.16-.91-.31-1.36-.49h0l-.09,0c-.33-.15-.67-.29-1-.42a1,1,0,0,0-.22-.09,6.19,6.19,0,0,0-.63-.32c-.29-.15-.57-.32-.86-.46l-.16-.08a1.46,1.46,0,0,0-.25-.13l-.46-.21-.14-.07c-.43-.2-.83-.42-1.27-.61a4.64,4.64,0,0,0-2.35-.77h-.26a5.36,5.36,0,0,0-.7,0,2.33,2.33,0,0,0-1.1.57c-.29.25-.6.52-.89.79a1.31,1.31,0,0,0-.11,1.85,1.28,1.28,0,0,0,1.37.35,1.06,1.06,0,0,0,.49-.26c.27-.23.51-.47.78-.69l0,0a3.7,3.7,0,0,1,.47,0,3.63,3.63,0,0,1,.51.15l.56.29.13.07h0l.06,0,.28.12c.36.18.71.37,1.09.54a1.07,1.07,0,0,0,.22.1l.11,0a1.13,1.13,0,0,1,.21.12.84.84,0,0,1,.14.06l.06,0h0c.12.06.23.14.36.21l.37.17c.27.14.52.27.8.4,0,0,.06,0,.09,0,.37.18.77.32,1.14.48l0,0,.13.06h0a10.55,10.55,0,0,0,1.47.56c.49.14,1,.32,1.43.48s.83.32,1.24.48l.55.19c.54.18,1.09.34,1.64.5.33.1.67.16,1,.26s.62.16.94.27a18.46,18.46,0,0,0,2.2.51h0l.29,0,.18,0,.15,0,.05,0h.07l.41.06.25.05.33,0,.76.12c.29.06.6.13.91.17s.54,0,.83.07c.56.08,1.12.19,1.68.23s1.19,0,1.79.09,1.08.05,1.61.05c.32,0,.64,0,1,0l.43,0h.53c.25,0,.51,0,.76-.06a.18.18,0,0,1,.09,0h.34l.48-.05h0c.3,0,.62,0,.93-.08s.65-.08,1-.11l.26,0h-.1c.38,0,.76-.06,1.16-.11.23,0,.45-.08.68-.12h.3a.52.52,0,0,1,.17,0H323a1.28,1.28,0,0,0,.94-.33,1.06,1.06,0,0,0,.19-.24,1.2,1.2,0,0,0,.23-.67A1.34,1.34,0,0,0,324.06,126Zm-3.93-.11.33,0h-.09Zm-27.95-2.69h0Z"/><path class="cls-1" d="M330.94,81.22s0,0-.07-.08-.34-.34-.52-.5-.31-.23-.47-.33c-.41-.31-.77-.68-1.19-1s-.92-.68-1.39-1l-.25-.18c-.48-.33-1-.68-1.47-1h0a.24.24,0,0,0-.09-.06v0l-.09,0a.15.15,0,0,1-.07,0l-.08,0a3.81,3.81,0,0,0-.41-.29l-.2-.13s0,0,0,0c-.33-.24-.69-.47-1-.71a.18.18,0,0,0-.09-.06l0,0-.1-.07h0c-.13-.11-.27-.2-.4-.3a.33.33,0,0,1-.1-.06l-.18-.13c-.59-.4-1.2-.77-1.77-1.16s-1.23-.78-1.83-1.19-1-.64-1.45-1L316.51,71l-.73-.49s0,0,0,0h0l-.26-.18a1.18,1.18,0,0,0-.18-.13c-.55-.38-1.06-.8-1.6-1.2s-1.08-.92-1.62-1.39-1.06-1-1.58-1.47c-.26-.25-.49-.53-.73-.78s-.56-.6-.85-.9c-.07-.09-.15-.16-.23-.25-.33-.39-.65-.79-1-1.19-.13-.14-.26-.3-.37-.44a27.79,27.79,0,0,1-1.9-2.56A23.64,23.64,0,0,1,304,57.5c-.21-.44-.41-.88-.62-1.33s-.33-.74-.47-1.11c-.31-.78-.63-1.57-1-2.33L302,53a4.47,4.47,0,0,1-.31-.79c-.09-.32-.2-.63-.31-1s-.27-.95-.37-1.43a1.49,1.49,0,0,0,0-.18v0s0-.07,0-.11l0-.19c-.06-.32-.14-.63-.2-1s-.15-.78-.22-1.16-.09-.7-.14-1-.1-.73-.13-1.1-.09-.75-.12-1.14a3.53,3.53,0,0,0,0-.46c0-.19,0-.37,0-.56,0-.68,0-1.37-.05-2a9.27,9.27,0,0,1,0-1,11.62,11.62,0,0,1,0-1.18c0-.5,0-1,0-1.49s.15-.86.24-1.28.13-.65.2-1c0-.13.05-.24.07-.36.09-.42.18-.83.26-1.24,0-.16.07-.33.1-.5s.05-.29.09-.43.06-.16.1-.24a.93.93,0,0,0,.1-.2l.12-.34.17-.32a2.91,2.91,0,0,0,.16-.5c.06-.11.1-.23.17-.38a.06.06,0,0,1,0-.05s0-.05,0-.08a1.11,1.11,0,0,0,.15-.31s0,0,0-.05a1.33,1.33,0,0,0,.13-.33,1.43,1.43,0,0,0,0-.74,1.38,1.38,0,0,0-1.27-.9,1.4,1.4,0,0,0-.4.07,1.38,1.38,0,0,0-.74.6,1.12,1.12,0,0,0-.16.37.22.22,0,0,0-.05.08.55.55,0,0,0-.08.15,1.36,1.36,0,0,0-.17.39l-.05.08a2.3,2.3,0,0,0-.14.42s0,.05,0,.08l-.12.19c-.06.16-.11.31-.16.46a.1.1,0,0,0,0,0,1.1,1.1,0,0,0-.15.41,3,3,0,0,0-.17.41c0,.13-.05.27-.08.4s-.09.38-.13.58l-.3,1.44c-.1.51-.21,1-.32,1.54-.05.3-.12.59-.16.9a11.71,11.71,0,0,0-.06,1.19c0,.71-.06,1.43,0,2.14,0,.36,0,.72,0,1.08s0,.66.05,1a30.64,30.64,0,0,0,.26,4.28c.08.48.15,1,.23,1.45s.15.9.23,1.35.15.62.22.94a15.71,15.71,0,0,0,.48,2c.1.34.24.67.33,1a6.56,6.56,0,0,0,.37,1c.1.23.19.47.29.72s.27.58.39.89c.24.64.54,1.27.81,1.92a23.58,23.58,0,0,0,2.66,4.61c.53.73,1.07,1.46,1.66,2.15a3.65,3.65,0,0,1,.31.36l.84,1a1.79,1.79,0,0,0,.22.25c.51.6,1.07,1.17,1.61,1.77.24.25.52.5.78.75s.52.51.81.76c.52.46,1,1,1.57,1.39s1.07.83,1.62,1.24c.17.11.33.24.5.36l.13.09.09,0a.83.83,0,0,0,.16.12l.12.08.16.12.32.21a.22.22,0,0,1,.09.07l.09.06.17.12c.46.32.89.66,1.37,1s.89.57,1.32.87c1.12.76,2.25,1.47,3.37,2.19l.12.08.11.08c.43.31.87.6,1.29.89s.55.39.81.58l.07,0a.91.91,0,0,1,.16.11l.17.13.08,0,.05,0,0,0,.12.08.67.46.77.54.22.15c.46.33.92.65,1.35,1,.22.17.41.35.63.52a5.25,5.25,0,0,0,.69.53,7,7,0,0,1,.7.64l.19.15A1.34,1.34,0,0,0,331,83,1.31,1.31,0,0,0,330.94,81.22Z"/><path class="cls-1" d="M348.38,104.44c0-.42,0-.84-.1-1.25-.08-.56-.18-1.1-.29-1.66v0s0,0,0,0v0s0-.06,0-.1a.31.31,0,0,0,0-.13c0-.14-.05-.27-.07-.41h0a11.19,11.19,0,0,0-.31-1.27c-.12-.32-.22-.64-.35-1-.29-.72-.61-1.46-.95-2.18a11.46,11.46,0,0,0-.75-1.38c-.33-.52-.67-1-1-1.53s-.7-1-1.08-1.47-.82-.94-1.22-1.41a3.25,3.25,0,0,1-.38-.45c-.37-.44-.76-.88-1.18-1.29l-1.26-1.26a16,16,0,0,0-1.43-1.18c-.54-.4-1.05-.83-1.58-1.24-.3-.25-.65-.47-1-.7a0,0,0,0,1,0,0l-.09-.07-1.13-.82-.42-.3c-.45-.32-.89-.65-1.34-1l-.58-.4c-.29-.22-.57-.46-.85-.7l-.41-.35c-.53-.39-1-.8-1.57-1.18s-1-.8-1.52-1.23l-.14-.13a5.63,5.63,0,0,0-.58-.5c-.24-.18-.5-.36-.74-.55l-1-.79a1.12,1.12,0,0,0-.33-.24v0c-.14-.08-.27-.19-.41-.29a1.39,1.39,0,0,0-.87-.34h-.09a1.25,1.25,0,0,0-.89.42,1.39,1.39,0,0,0-.35,1,1.36,1.36,0,0,0,.42.89c.23.18.48.35.71.51,0,0,0,0,0,0,.47.34.89.75,1.36,1.08.26.2.53.37.76.58.06.06.13.11.19.18s.32.3.5.45c.52.42,1.07.83,1.6,1.23s1,.77,1.49,1.17l.19.15,0,0c.24.22.5.43.75.63a9.21,9.21,0,0,0,.8.53l.06,0,.09,0,.32.23c.38.29.75.57,1.15.84a2.53,2.53,0,0,0,.32.21h0l.86.63h0a.1.1,0,0,1,.06.05h0l.08,0s0,0,0,0,0,0,.05,0,.24.16.37.25c.49.36.92.75,1.41,1.13s1,.78,1.5,1.18.84.8,1.26,1.19.85.86,1.25,1.32l.11.13.13.14.12.14a0,0,0,0,0,0,0c.06.07.13.14.19.22.31.36.63.7.94,1.05.49.63.95,1.29,1.4,1.95.27.41.55.82.81,1.23s.35.65.52,1l.09.17c.26.55.49,1.12.72,1.69a10.77,10.77,0,0,1,.54,1.78,1.37,1.37,0,0,1,0-.19c0,.25.09.51.14.75s.13.6.18.91.1.64.13,1,.05.69.09,1,0,.61,0,.92,0,.6,0,.9,0,.32,0,.48a.38.38,0,0,0,0,.1q0,.32-.06.6c0,.15,0,.27,0,.41a.73.73,0,0,0-.05.2,1.12,1.12,0,0,0,0,.63,1.84,1.84,0,0,0,.15.35,1.3,1.3,0,0,0,.82.57,1.46,1.46,0,0,0,1-.17,1.26,1.26,0,0,0,.61-.89,1.29,1.29,0,0,0,0-.25c0-.28.06-.56.08-.85s0-.28,0-.4a13.2,13.2,0,0,0,.11-1.4A11.38,11.38,0,0,0,348.38,104.44Z"/><path class="cls-1" d="M348.4,105.87a1.29,1.29,0,0,0-1.14-.85h-.07a1.31,1.31,0,0,0-1.31,1.24c0,.43-.07.84-.12,1.27s0,.64-.07,1a3,3,0,0,0-.09.32.22.22,0,0,0,0,.1c-.05.17-.09.35-.13.52a3.89,3.89,0,0,1-.1.4,4.32,4.32,0,0,1-.24.63c-.17.41-.33.81-.51,1.2-.07.14-.13.27-.19.41a.76.76,0,0,0-.09.18,16.91,16.91,0,0,1-1.4,2.31c-.28.4-.56.81-.87,1.19-.14.17-.28.35-.4.53l-.23.34c-.25.24-.5.47-.75.72s-.64.66-1,1-.7.71-1.1,1c-.18.15-.37.27-.54.43l-.57.47-.87.56c-.24.17-.52.3-.78.45s-.54.32-.82.47a9.34,9.34,0,0,1-1.4.65q-.27.11-.54.18l-.29.1-.5.18-.22.08h0a1.81,1.81,0,0,0-.29.19,0,0,0,0,1,0,0,1.26,1.26,0,0,0-.41,1.24,1.32,1.32,0,0,0,1.55,1,2.56,2.56,0,0,0,.51-.19l.47-.17h.06a.44.44,0,0,1,.15,0,11.63,11.63,0,0,0,1.93-.78c.69-.4,1.39-.77,2.06-1.22l.34-.23.42-.27c.4-.27.74-.56,1.12-.85s.52-.41.76-.66.48-.44.72-.65c.47-.39.85-.87,1.3-1.27.19-.18.38-.36.56-.55a7.37,7.37,0,0,0,.64-.86c.53-.7,1.08-1.38,1.56-2.11a19.84,19.84,0,0,0,1.38-2.52s0,0,0-.06c.23-.49.46-1,.65-1.48.1-.25.2-.48.29-.72A6,6,0,0,0,348,110c0-.19.1-.37.15-.55a3.86,3.86,0,0,0,.19-1.11c0-.64.13-1.25.16-1.89A1.4,1.4,0,0,0,348.4,105.87Z"/><path class="cls-1" d="M338.2,121.12a1.27,1.27,0,0,0-.92-.4h0a1.42,1.42,0,0,0-.92.39l-.09.07a8.6,8.6,0,0,1-.85.45c-.24.13-.49.27-.74.38s-.4.14-.59.21l-1.14.47h0l-.79.26-.34.11a0,0,0,0,1,0,0,1.76,1.76,0,0,0-.3.1c-.26.08-.53.1-.8.17s-.52.15-.79.23c-1,.32-2.07.55-3.12.78-.47.09-.94.2-1.42.33s-.81.25-1.22.32l-.92.13a6.67,6.67,0,0,0-1.24.26,5.65,5.65,0,0,1-1,.22l-.23,0a2.39,2.39,0,0,0-.36,0h-.12a.1.1,0,0,0-.07,0c-.46,0-.91.12-1.37.2s-1,.12-1.48.15-1.13.11-1.69.18a.18.18,0,0,1-.1,0c-.4,0-.81,0-1.22.06s-.79,0-1.19,0h-.52c-.2,0-.42,0-.64,0h-.53a4.87,4.87,0,0,1-.54,0c-.23,0-.47-.08-.72-.1s-.51,0-.76-.08l.16,0-.92-.1L308,126l-.68-.09a11.92,11.92,0,0,1-2.52-.55,7.09,7.09,0,0,0-1-.38c-.33-.08-.63-.19-1-.27s-.62-.19-.94-.28a4.56,4.56,0,0,0-.53-.13l-.3-.06a1.18,1.18,0,0,0-.62-.17,1.3,1.3,0,0,0-1.3,1.33,1.42,1.42,0,0,0,.19.7.94.94,0,0,0,.18.21,2.31,2.31,0,0,0,.84.46c.14,0,.31,0,.45.09.33.1.68.16,1,.29s.55.14.82.22.54.14.79.23a6,6,0,0,0,.87.34c.28.09.55.18.84.25s.6.11.91.16l1,.14H307l.22,0c.14,0,.28,0,.42.06l.88.13.59.05,1.07.12c.31,0,.6.1.91.1a1.22,1.22,0,0,0,.33,0,3,3,0,0,1,.42,0,4.42,4.42,0,0,0,.63,0c.26,0,.51,0,.77,0l.74,0,.79,0a11.69,11.69,0,0,0,1.19-.1l.57-.08c.58-.08,1.15-.1,1.73-.17.41,0,.8-.07,1.21-.14.25,0,.48-.09.72-.12a1.33,1.33,0,0,1,.28,0,2.09,2.09,0,0,0,.32-.05h.13l.43-.07h.13a9.06,9.06,0,0,0,1.06-.23c.37-.09.72-.19,1.1-.26l.34,0,.23,0c.25,0,.49,0,.73-.1l.85-.23c.61-.18,1.24-.32,1.86-.45a26.19,26.19,0,0,0,3.08-.78c.51-.18,1.05-.23,1.56-.4s1.25-.41,1.87-.66h0l.24-.1c.25-.11.5-.21.76-.3a9.26,9.26,0,0,0,1-.42c.28-.15.56-.31.85-.45l.38-.18a5.22,5.22,0,0,0,.82-.6.58.58,0,0,0,.2-.28,1.24,1.24,0,0,0,.18-.66A1.28,1.28,0,0,0,338.2,121.12Z"/><path class="cls-1" d="M378.54,10.48c0,.06,0,.14,0,.22a2.85,2.85,0,0,0,0,.5,2.28,2.28,0,0,0,0,.26c0,.17-.06.35-.08.52v0a4.33,4.33,0,0,1-.19.85c0-.06.05-.13.07-.2-.11.33-.19.65-.3,1l0-.08a.42.42,0,0,0,0,.1.71.71,0,0,1-.11.17c-.06.1-.1.22-.16.31l-.26.46c-.12.19-.21.41-.33.61s-.18.36-.28.53-.17.34-.28.51-.1.23-.17.33a2.07,2.07,0,0,0-.15.34l-.23.5a6.07,6.07,0,0,0-.24.59l-.09.18-.08.15a3,3,0,0,0-.12.32s0,.07,0,.09a5.5,5.5,0,0,1-.28.6,7.11,7.11,0,0,0-.59.88c-.11.2-.23.39-.34.57l-.08.07c-.21.27-.4.57-.63.81l-.07.06-.43.39-.11.1.06-.08-.16.14-.18.1a.78.78,0,0,0-.18.11l-.21.07h-.1a2,2,0,0,0-.23-.18,7.79,7.79,0,0,0-.8-.52,1.79,1.79,0,0,0-.18-.14,6.59,6.59,0,0,0-.72-.44,3.47,3.47,0,0,0-.33-.18,6.92,6.92,0,0,0-.81-.43c-.23-.09-.44-.17-.66-.28l-.72-.36c-.25-.13-.49-.28-.76-.4-.5-.21-1-.43-1.51-.66a8.67,8.67,0,0,0-1.56-.6l-.4-.08c-.25-.06-.51-.11-.75-.18l-.55-.14a2,2,0,0,1-.26-.09,5.52,5.52,0,0,0-.54-.16h0l-.07,0-.68-.2-.08,0c-.29-.06-.61-.16-.91-.23l-.57-.1a17.42,17.42,0,0,0-1.74-.38c-.32-.05-.64-.07-1-.12a8.27,8.27,0,0,0-.87-.11,6.15,6.15,0,0,0-.75-.09c-.2,0-.41,0-.61-.05s-.49,0-.72-.08a6.73,6.73,0,0,0-.77-.09c-.92-.06-1.82-.11-2.74-.1l-1.12,0h-.41l-.47,0-1.75.05a7.18,7.18,0,0,0-.8,0c-.26,0-.52,0-.77,0a11.47,11.47,0,0,0-1.66.08c-.45.05-.91.06-1.36.11s-1.12.14-1.68.25-1.17.21-1.74.36l.18-.06c-.3.08-.6.14-.91.21s-.86.24-1.28.36a17.68,17.68,0,0,0-2,.66c-.57.23-1.15.47-1.71.72s-1.1.44-1.63.73-1.31.76-2,1.16h0c-.33.19-.68.37-1,.59l-.84.55a7.19,7.19,0,0,0-.78.54c-.31.23-.62.48-.91.72-.55.45-1.09.94-1.6,1.42a14.13,14.13,0,0,0-1.59,1.8,18.38,18.38,0,0,0-1.55,2.45s0,0,0,0c-.26.46-.53.91-.75,1.38s-.41.89-.61,1.33-.25.59-.35.88a1.42,1.42,0,0,0,0,.16,1.52,1.52,0,0,0-.06.2.09.09,0,0,0,0,.05,1.78,1.78,0,0,0-.17.41c0,.05,0,.11,0,.16s0,0,0,0l-.08.19a1.76,1.76,0,0,0-.29.62l-.12.19a1.56,1.56,0,0,0-.15.41,3.2,3.2,0,0,0-.19.69,6.29,6.29,0,0,0-.11.74c-.07.63-.15,1.25-.2,1.89a7.64,7.64,0,0,0,.14,2v.15a8.63,8.63,0,0,0,.18,1.61c.14.6.25,1.2.43,1.81.09.3.18.6.28.88a12,12,0,0,0,1.08,2.43v0l.08.12c.09.15.19.3.28.46l.13.21c.06.09.12.2.19.3a.51.51,0,0,0,.09.13v0c.08.12.15.23.23.33s.19.23.28.34h0a1.21,1.21,0,0,0,.79.69c.27.32.55.64.83.95s.43.42.64.64a11.52,11.52,0,0,0,.92.93l1,.89c.35.32.71.64,1.08.94s.81.58,1.24.85.66.53,1,.8a13.52,13.52,0,0,0,1.17.81c.25.18.47.39.71.58a10.73,10.73,0,0,0,.93.62l.59.44,1,.6,1.05.72.86.56h0l0,0,0,0a0,0,0,0,0,0,0h0l.05,0a.18.18,0,0,1,.08,0l.08.05.05,0h0l.14.1,1.6,1c.36.23.7.49,1.07.74.58.39,1.13.82,1.7,1.21a.51.51,0,0,0,.13.09h0a0,0,0,0,1,0,0h.05c.39.28.75.62,1.15.9s.94.66,1.42,1,.84.53,1.26.79l.08.05s0,0,0,0h0l.07,0c.3.22.64.39.94.61l1.08.69c.32.22.65.42,1,.63,1,.69,2,1.39,3,2.12.46.33.89.7,1.33,1s.85.71,1.26,1.07.71.65,1.08,1L354,74c.18.14.34.31.52.45.4.34.81.65,1.19,1a12.18,12.18,0,0,1,.89.87c.18.2.34.41.53.61a.07.07,0,0,0,0,.05c0,.06.09.11.12.16s.32.36.49.52a4.21,4.21,0,0,0,.37.36l0,0a.34.34,0,0,0,.09.08l.16.2c.19.23.41.44.61.67a.8.8,0,0,0,.13.13c.19.23.4.45.62.67s.29.33.44.52c0,0,0,0,0,0a3.43,3.43,0,0,0,.25.55c.14.2.3.38.44.57s.11.17.16.25l.12.17a2,2,0,0,0,.25.43l.37.56.18.22s0,0,0,0,.05.06.06.1l.34.6c.13.24.31.47.45.72a9.93,9.93,0,0,1,.83,1.54c.12.35.26.69.39,1s.26.78.39,1.16h0a.08.08,0,0,0,0,.06.43.43,0,0,1,0,.05l0,0s0,0,0,.07,0,.17.08.26c.23.64.41,1.28.59,1.91s.41,1.26.55,1.91c.06.31.12.61.17.92s.09.69.16,1c.09.62.14,1.24.23,1.87.06.44.14.87.19,1.32,0,.2,0,.42,0,.62s0,.64.05,1c0,.54,0,1.06-.05,1.6-.06,1.24-.15,2.48-.28,3.71-.05.38-.11.76-.16,1.15s-.11.67-.16,1-.15.67-.22,1a.6.6,0,0,0,0,.12c0,.07,0,.14,0,.21q-.15.72-.36,1.44c-.15.59-.27,1.19-.39,1.79-.07.28-.12.58-.21.87l-.27,1a13.71,13.71,0,0,1-.64,1.72c-.06.17-.12.35-.19.51a3.56,3.56,0,0,0-.25.61l0,0c-.07.14-.16.28-.24.42s-.28.58-.42.86c-.23.5-.46,1-.74,1.46l-.22.26c-.15.21-.29.43-.43.64s-.39.53-.57.78c0,0,0,0-.05.07s0,0,0,0a.16.16,0,0,1,0,.07l-.11.16a15.5,15.5,0,0,1-1.13,1.41c-.42.48-.79,1-1.24,1.51-.85.94-1.58,2-2.51,2.87l-.32.31-.44.38c-.52.45-1,.92-1.51,1.41-.25.25-.52.5-.79.74s-.34.36-.52.52l-.63.5c-.34.3-.68.59-1,.86s-.72.51-1.08.76-.77.58-1.17.85c-.62.39-1.26.77-1.86,1.16s-1.17.81-1.77,1.18l-1,.56-.12.06-.27.13-.19.1s0,0-.05,0l-.06,0-.5.27-.91.41c-.36.16-.7.35-1,.53l-1.78.76a16.77,16.77,0,0,1-1.78.69c-.6.19-1.2.39-1.79.63l-.85.28-.95.31c-.77.27-1.51.52-2.29.71l-.89.16-1.11.21-1.51.32c-.47.09-.95.14-1.42.25s-1,.2-1.52.32l-.73.11a7,7,0,0,1-.91.05,5.16,5.16,0,0,0-.78.08h-.25a3.24,3.24,0,0,0-.44,0c-.34,0-.69,0-1,0s-.69.06-1,.11a12.67,12.67,0,0,1-1.63,0,13.15,13.15,0,0,0-1.66.05c-.45,0-.89,0-1.32,0h-.58c-.66,0-1.32,0-2,0h-.52c-.43,0-.88,0-1.32,0l-1.94-.14c-1.38-.09-2.76-.14-4.14-.27-.63-.05-1.25-.1-1.88-.18h-.09l-.24,0c-.15,0-.3-.05-.45-.06l.33,0-1.7-.26-.34-.05c-.36-.05-.72-.1-1.06-.17s-.67-.15-1-.19c-.64-.09-1.26-.25-1.89-.38s-1.07-.26-1.61-.39l-1.53-.35a16.39,16.39,0,0,1-1.84-.58c-.53-.22-1-.46-1.55-.68l-.23-.08-.41-.17-.24-.1-.18-.07h0l-.23-.1-.71-.31c-.46-.19-.9-.41-1.34-.61s-.91-.5-1.39-.74-.94-.44-1.39-.69-.71-.43-1.06-.67a4.77,4.77,0,0,1-.71-.71l-.12-.17a.32.32,0,0,0,0-.09v-.08a.4.4,0,0,0,0-.15v.08a.45.45,0,0,1,0-.16c0-.09.09-.16.12-.24a3.29,3.29,0,0,0,.23-.46c.12-.24.22-.5.34-.74h0l.05-.11s0-.05,0-.06a.5.5,0,0,0,.05-.13.42.42,0,0,0,0-.1,1.43,1.43,0,0,0,.09-.27,1.35,1.35,0,0,0,.08-.36v0a1.24,1.24,0,0,0,.11-.52.22.22,0,0,0,0-.08c.21-.31.4-.61.58-.91.28-.46.52-.95.79-1.41s.56-.91.82-1.38.46-.79.66-1.21.38-.83.6-1.24.4-.88.63-1.31c.14-.25.28-.51.43-.76a1.06,1.06,0,0,0,.49-.26c.27-.23.51-.47.78-.69l.1,0,.17.08a.26.26,0,0,1,.1,0l.06,0h0l0,0a1.23,1.23,0,0,0,.61.35,1.16,1.16,0,0,0,.69,0s0,0,0,0h0l.28.12c.36.18.71.37,1.09.54a1.07,1.07,0,0,0,.22.1l.11,0a1.13,1.13,0,0,1,.21.12.84.84,0,0,1,.14.06l0,0h0c.12.06.23.14.36.21l.37.17c.27.14.52.27.8.4,0,0,.06,0,.09,0,.37.18.77.32,1.14.48l0,0,.13.06h0a10.55,10.55,0,0,0,1.47.56c.49.14,1,.32,1.43.48s.83.32,1.24.48a.94.94,0,0,0,.18.21,2.31,2.31,0,0,0,.84.46c.14,0,.31,0,.45.09.33.1.68.16,1,.29s.55.14.82.22.54.14.79.23a6,6,0,0,0,.87.34c.28.09.55.18.84.25s.6.11.91.16l1,.14H307l.22,0c.14,0,.28,0,.42.06l.88.13.59.05,1.07.12c.31,0,.6.1.91.1a1.22,1.22,0,0,0,.33,0,3,3,0,0,1,.42,0,4.42,4.42,0,0,0,.63,0c.26,0,.51,0,.77,0l.74,0,.79,0a11.69,11.69,0,0,0,1.19-.1l.43,0h.53c.25,0,.51,0,.76-.06a.18.18,0,0,1,.09,0h.34l.48-.05h0c.3,0,.62,0,.93-.08s.65-.08,1-.11l.26,0h-.1c.38,0,.76-.06,1.16-.11.23,0,.45-.08.68-.12h.3a.52.52,0,0,1,.17,0H323a1.28,1.28,0,0,0,.94-.33,1.06,1.06,0,0,0,.19-.24c.25,0,.49,0,.73-.1l.85-.23c.61-.18,1.24-.32,1.86-.45a26.19,26.19,0,0,0,3.08-.78c.51-.18,1.05-.23,1.56-.4s1.25-.41,1.87-.66h0l.24-.1c.25-.11.5-.21.76-.3a9.26,9.26,0,0,0,1-.42c.28-.15.56-.31.85-.45l.38-.18a5.22,5.22,0,0,0,.82-.6.58.58,0,0,0,.2-.28l.42-.27c.4-.27.74-.56,1.12-.85s.52-.41.76-.66.48-.44.72-.65c.47-.39.85-.87,1.3-1.27.19-.18.38-.36.56-.55a7.37,7.37,0,0,0,.64-.86c.53-.7,1.08-1.38,1.56-2.11a19.84,19.84,0,0,0,1.38-2.52s0,0,0-.06c.23-.49.46-1,.65-1.48.1-.25.2-.48.29-.72A6,6,0,0,0,348,110c0-.19.1-.37.15-.55a3.86,3.86,0,0,0,.19-1.11c0-.64.13-1.25.16-1.89a1.4,1.4,0,0,0-.1-.54,11.38,11.38,0,0,0,0-1.43c0-.42,0-.84-.1-1.25-.08-.56-.18-1.1-.29-1.66v0s0,0,0,0v0s0-.06,0-.1a.31.31,0,0,0,0-.13c0-.14-.05-.27-.07-.41h0a11.19,11.19,0,0,0-.31-1.27c-.12-.32-.22-.64-.35-1-.29-.72-.61-1.46-.95-2.18a11.46,11.46,0,0,0-.75-1.38c-.33-.52-.67-1-1-1.53s-.7-1-1.08-1.47-.82-.94-1.22-1.41a3.25,3.25,0,0,1-.38-.45c-.37-.44-.76-.88-1.18-1.29l-1.26-1.26a16,16,0,0,0-1.43-1.18c-.54-.4-1.05-.83-1.58-1.24-.3-.25-.65-.47-1-.7a0,0,0,0,1,0,0l-.09-.07-1.13-.82-.42-.3c-.45-.32-.89-.65-1.34-1l-.58-.4c-.29-.22-.57-.46-.85-.7,0,0,0,0-.07-.08s-.34-.34-.52-.5-.31-.23-.47-.33c-.41-.31-.77-.68-1.19-1s-.92-.68-1.39-1a5.63,5.63,0,0,0-.58-.5c-.24-.18-.5-.36-.74-.55l-1-.79a1.12,1.12,0,0,0-.33-.24v0c-.14-.08-.27-.19-.41-.29a1.39,1.39,0,0,0-.87-.34h0c-.13-.11-.27-.2-.4-.3a.33.33,0,0,1-.1-.06l-.18-.13c-.59-.4-1.2-.77-1.77-1.16s-1.23-.78-1.83-1.19-1-.64-1.45-1L316.51,71l-.73-.49s0,0,0,0h0l-.26-.18a1.18,1.18,0,0,0-.18-.13c-.55-.38-1.06-.8-1.6-1.2s-1.08-.92-1.62-1.39-1.06-1-1.58-1.47c-.26-.25-.49-.53-.73-.78s-.56-.6-.85-.9c-.07-.09-.15-.16-.23-.25-.33-.39-.65-.79-1-1.19-.13-.14-.26-.3-.37-.44a27.79,27.79,0,0,1-1.9-2.56A23.64,23.64,0,0,1,304,57.5c-.21-.44-.41-.88-.62-1.33s-.33-.74-.47-1.11c-.31-.78-.63-1.57-1-2.33L302,53a4.47,4.47,0,0,1-.31-.79c-.09-.32-.2-.63-.31-1s-.27-.95-.37-1.43a1.49,1.49,0,0,0,0-.18v0s0-.06,0-.09v0l0-.19c-.06-.32-.14-.63-.2-1s-.15-.78-.22-1.16-.09-.7-.14-1-.1-.73-.13-1.1-.09-.75-.12-1.14a3.53,3.53,0,0,0,0-.46c0-.19,0-.37,0-.56,0-.68,0-1.37-.05-2a9.27,9.27,0,0,1,0-1,11.62,11.62,0,0,1,0-1.18c0-.5,0-1,0-1.49s.15-.86.24-1.28.13-.65.2-1a1.36,1.36,0,0,0,.69-1.18c0-.33,0-.65,0-1a6.47,6.47,0,0,1,.35-1.36l0-.11,0-.12a.31.31,0,0,0,.05-.12l.12-.35a2,2,0,0,0,.1-.32s0-.07.05-.11a2.11,2.11,0,0,0,.1-.3s0,0,0-.05a1.33,1.33,0,0,0,.13-.33,13.62,13.62,0,0,1,.57-1.29c.31-.62.58-1.24.83-1.88a25.14,25.14,0,0,1,2.27-4.33l.38-.58c.13-.18.24-.37.37-.56s.23-.32.34-.49a.39.39,0,0,0,.08-.1c.16-.2.33-.42.5-.62s.43-.59.65-.89.62-.78.93-1.13.72-.81,1.1-1.18c.17-.18.36-.33.55-.5s.36-.36.54-.52l1.16-1,.4-.32.09-.09a.83.83,0,0,0,.16-.12l.76-.62c.14-.13.28-.24.43-.36.35-.26.71-.54,1.05-.81a10.56,10.56,0,0,1,1-.69c.37-.25.7-.53,1.09-.76.67-.42,1.35-.85,2-1.25s1.55-.84,2.34-1.24,1.39-.7,2.11-1l.78-.39c.33-.14.66-.28,1-.4s.81-.29,1.2-.44.71-.28,1.06-.41.77-.28,1.17-.41c.79-.27,1.61-.43,2.41-.66s1.37-.32,2-.5c.33-.09.67-.15,1-.22l1.1-.16.08,0h.13l.09,0h0l.31-.06c.48-.06,1-.1,1.48-.12s1.12-.11,1.7-.16,1.06-.14,1.6-.19l.88,0a7.11,7.11,0,0,0,.94-.11c.22,0,.45,0,.67,0l.79-.07c.42,0,.86,0,1.28,0h.45a1.25,1.25,0,0,0,.84.29c.46,0,.93,0,1.39,0a11,11,0,0,0,1.15,0,15.66,15.66,0,0,1,2.16-.08,1.21,1.21,0,0,0,.59.13l.6,0c.91.13,1.8.3,2.72.39l-.33,0a6.83,6.83,0,0,0,1.11.08,5.61,5.61,0,0,1,.58,0h.28a4.93,4.93,0,0,0,.54,0l.05,0h.06A1.28,1.28,0,0,0,359,3.39a.7.7,0,0,0,.16-.14l.23,0a11.26,11.26,0,0,1,1.31.27l.76.21c.3.07.59.11.87.18.53.12,1.05.18,1.58.3s1.35.25,2,.46c.19.07.37.14.55.19s.33.06.5.11.65.17,1,.28l.32.12-.32-.13c.41.15.82.28,1.23.42s.87.3,1.3.44,1.15.5,1.71.75,1,.42,1.55.65.9.39,1.36.57.79.38,1.18.57.48.27.71.38l.36.2c.08.05.19.09.28.14l.44.32.17.1a.41.41,0,0,1,.1.09v0l0,.12C378.4,10.19,378.47,10.34,378.54,10.48Z"/></g></g></svg>